<?xml version="1.0" encoding="UTF-8"?>
<svg xmlns="http://www.w3.org/2000/svg" width="20" height="21" viewBox="0 0 20 21" fill="none">
  <path d="M0 3.50952C0 1.85267 1.34315 0.509521 3 0.509521H17C18.6569 0.509521 20 1.85267 20 3.50952V17.5095C20 19.1664 18.6569 20.5095 17 20.5095H3C1.34315 20.5095 0 19.1664 0 17.5095V3.50952Z" fill="url(#paint0_linear_1894_4128)"></path>
  <path d="M10.1201 2.51468C9.06402 2.47634 8.01114 2.652 7.02476 3.03112C6.03838 3.41023 5.13888 3.98495 4.38036 4.7207C3.62185 5.45646 3.02001 6.33804 2.61104 7.31243C2.20207 8.28681 1.99442 9.33385 2.00059 10.3906C1.98699 11.4876 2.20733 12.575 2.64695 13.5803C3.08657 14.5855 3.73536 15.4855 4.5501 16.2203C4.61479 16.2779 4.66746 16.3478 4.70508 16.4258C4.7427 16.5038 4.76453 16.5885 4.76933 16.675V18.1203C4.77378 18.2268 4.80407 18.3307 4.85759 18.4229C4.91111 18.5151 4.98625 18.593 5.07654 18.6497C5.16683 18.7064 5.26956 18.7404 5.37587 18.7486C5.48219 18.7568 5.58891 18.739 5.68683 18.6968L7.31072 17.9904C7.44938 17.938 7.60239 17.938 7.74105 17.9904C8.5087 18.1976 9.30058 18.3013 10.0957 18.2989C12.1888 18.3021 14.1975 17.4738 15.6798 15.996C17.1622 14.5182 17.9968 12.5121 18 10.419C18.0032 8.32586 17.1748 6.31718 15.6971 4.83484C14.2193 3.3525 12.2132 2.51791 10.1201 2.51468ZM14.9917 8.5718L12.6127 12.3555C12.523 12.4979 12.4047 12.6202 12.2653 12.7147C12.126 12.8091 11.9685 12.8736 11.803 12.9041C11.6374 12.9346 11.4673 12.9305 11.3034 12.892C11.1395 12.8534 10.9854 12.7813 10.8508 12.6802L8.95085 11.2593C8.86653 11.1961 8.76396 11.1619 8.65855 11.1619C8.55314 11.1619 8.45058 11.1961 8.36625 11.2593L5.8005 13.208C5.72904 13.2631 5.64037 13.2911 5.55022 13.287C5.46008 13.283 5.37429 13.2471 5.3081 13.1858C5.2419 13.1244 5.19958 13.0416 5.18865 12.9521C5.17771 12.8625 5.19888 12.7719 5.24838 12.6965L7.62738 8.91282C7.7171 8.77036 7.83539 8.64806 7.97476 8.55363C8.11414 8.45919 8.27158 8.39468 8.43714 8.36416C8.60271 8.33364 8.7728 8.33778 8.93668 8.37631C9.10057 8.41485 9.25468 8.48694 9.3893 8.58804L11.2893 10.0089C11.3736 10.0722 11.4761 10.1064 11.5816 10.1064C11.687 10.1064 11.7895 10.0722 11.8739 10.0089L14.4396 8.06027C14.5111 8.00516 14.5997 7.97716 14.6899 7.98123C14.78 7.98531 14.8658 8.02119 14.932 8.08252C14.9982 8.14385 15.0405 8.22665 15.0515 8.31623C15.0624 8.4058 15.0412 8.49635 14.9917 8.5718Z" fill="white"></path>
  <defs>
    <linearGradient id="paint0_linear_1894_4128" x1="27.5" y1="0.509522" x2="8.43323" y2="29.6606" gradientUnits="userSpaceOnUse">
      <stop stop-color="#FB5660"></stop>
      <stop offset="0.229167" stop-color="#D13FB2"></stop>
      <stop offset="0.59375" stop-color="#873BFF"></stop>
      <stop offset="0.942708" stop-color="#417AFF"></stop>
    </linearGradient>
  </defs>
</svg>
