<?xml version="1.0" standalone="no"?>
<!DOCTYPE svg PUBLIC "-//W3C//DTD SVG 20010904//EN"
 "http://www.w3.org/TR/2001/REC-SVG-20010904/DTD/svg10.dtd">
<svg version="1.0" xmlns="http://www.w3.org/2000/svg"
 width="512.000000pt" height="512.000000pt" viewBox="0 0 512.000000 512.000000"
 preserveAspectRatio="xMidYMid meet">
<metadata>
Created by potrace 1.14, written by Peter Selinger 2001-2017
</metadata>
<g transform="translate(0.000000,512.000000) scale(0.100000,-0.100000)"
fill="#000000" stroke="none">
<path d="M2306 5068 c-71 -9 -162 -32 -211 -52 -19 -8 -39 -16 -43 -17 -4 -1
-19 -10 -34 -20 -14 -10 -29 -19 -34 -19 -14 0 -119 -84 -162 -129 -69 -74
-84 -121 -97 -309 -2 -24 8 -81 22 -130 13 -48 26 -96 28 -106 3 -10 9 -33 14
-50 31 -96 53 -196 52 -234 -1 -23 -15 -104 -31 -179 -28 -128 -40 -167 -40
-130 0 28 -16 27 -19 -1 -2 -15 -4 -91 -4 -169 -1 -79 -2 -143 -2 -143 -1 0
-13 10 -26 21 -13 12 -70 52 -126 89 -98 65 -141 86 -228 108 -22 5 -78 27
-125 48 -72 33 -95 39 -153 39 -63 0 -71 -2 -93 -28 -13 -15 -24 -39 -24 -52
0 -47 52 -73 455 -228 98 -37 261 -118 295 -145 23 -18 25 -27 26 -101 0 -45
-3 -81 -7 -81 -4 0 -35 16 -68 34 -184 105 -333 157 -461 164 -84 4 -98 2
-120 -16 -34 -27 -21 -51 68 -127 38 -33 72 -67 74 -75 8 -25 -2 -40 -26 -40
-22 0 -35 6 -169 79 -90 50 -151 57 -205 26 -40 -24 -44 -35 -26 -72 24 -49
103 -79 221 -85 33 -1 40 -5 32 -15 -6 -7 -9 -19 -6 -27 5 -13 110 -67 187
-96 75 -28 44 -25 -97 12 -328 84 -509 110 -546 80 -22 -19 -13 -52 24 -85 17
-16 29 -30 27 -31 -1 -2 -27 0 -56 3 -77 11 -187 4 -267 -15 -97 -23 -246 -96
-280 -136 -26 -30 -26 -32 -8 -45 21 -16 54 -13 168 17 64 16 82 18 92 8 10
-11 4 -25 -32 -72 -24 -33 -42 -63 -39 -68 11 -17 76 -4 334 70 173 50 272 65
430 66 157 1 214 -5 360 -35 146 -31 471 -128 490 -147 3 -3 -29 -2 -70 2 -41
4 -109 10 -150 14 -162 15 -587 7 -710 -13 -208 -34 -287 -53 -352 -86 -45
-23 -64 -52 -44 -68 15 -13 103 -41 129 -41 10 0 34 -7 55 -16 35 -15 36 -16
17 -30 -34 -25 -93 -35 -219 -38 -174 -4 -184 -12 -116 -92 23 -25 38 -49 35
-52 -3 -3 -18 -8 -33 -10 -41 -5 -83 -28 -129 -71 -51 -48 -113 -128 -113
-147 0 -36 64 -10 217 87 51 33 99 59 108 59 18 0 18 1 4 -40 -13 -37 -3 -50
41 -50 38 0 62 21 123 107 30 43 69 92 87 110 58 59 151 102 276 128 77 16 94
19 219 34 96 12 358 13 375 1 12 -9 7 -17 -30 -51 -71 -65 -93 -73 -260 -105
-139 -26 -243 -83 -279 -152 -10 -19 -10 -26 1 -39 17 -21 131 -12 217 17 35
11 66 19 69 16 3 -3 -13 -24 -36 -46 -23 -21 -42 -43 -42 -49 0 -5 19 -16 41
-25 23 -9 40 -18 38 -20 -2 -2 -58 -44 -124 -93 -107 -80 -194 -160 -196 -181
0 -4 -2 -17 -5 -29 -2 -12 3 -29 11 -37 32 -32 92 0 270 144 228 184 354 280
427 328 77 50 212 112 243 112 9 0 53 9 98 21 45 12 93 23 107 25 14 3 34 7
45 11 27 8 -8 -20 -169 -135 -72 -50 -168 -111 -213 -134 -46 -23 -83 -45 -83
-49 0 -10 41 -49 51 -49 16 0 20 -42 6 -63 -8 -12 -63 -60 -123 -107 -206
-160 -233 -196 -234 -303 0 -41 -7 -72 -25 -107 -29 -57 -32 -102 -9 -125 34
-34 122 20 179 110 45 69 59 79 110 76 40 -2 48 2 93 46 29 28 80 100 122 173
96 163 227 323 322 391 35 25 41 12 22 -42 -57 -157 -166 -336 -272 -447 -29
-31 -62 -80 -76 -113 -13 -31 -13 -38 4 -74 21 -46 19 -53 -47 -134 -64 -78
-85 -124 -77 -166 12 -65 51 -51 132 45 92 110 103 122 109 116 7 -6 -30 -84
-78 -162 -160 -264 -194 -364 -121 -364 30 0 65 23 128 82 42 41 43 41 62 30
41 -27 28 -116 -27 -181 -58 -69 -83 -119 -88 -180 -13 -146 103 -192 179 -71
28 46 67 166 88 277 23 117 56 203 97 246 34 35 53 35 54 0 1 -76 11 -148 20
-160 29 -35 108 6 133 68 31 77 47 184 52 344 5 133 13 216 30 280 4 14 33
161 40 199 6 39 6 38 36 27 16 -6 27 -20 31 -38 9 -44 5 -318 -5 -370 -5 -27
-9 -94 -10 -149 -1 -160 39 -219 110 -159 17 14 43 51 58 81 31 64 37 69 58
48 21 -20 20 -51 -4 -172 -37 -186 -24 -266 52 -307 65 -35 115 2 141 104 9
35 11 70 6 100 -4 25 -10 64 -14 86 -3 22 -7 49 -9 60 -2 11 -1 28 3 38 5 13
15 -4 40 -65 46 -114 76 -160 104 -156 34 5 43 47 28 121 -8 34 -15 85 -17
114 -6 102 -89 366 -169 537 -25 54 -44 100 -42 102 2 2 33 -32 68 -77 35 -44
78 -98 95 -120 18 -21 55 -97 84 -169 56 -140 86 -193 112 -198 12 -2 20 14
33 73 28 128 47 117 145 -82 34 -68 65 -123 70 -123 5 0 19 -24 33 -52 13 -29
41 -90 62 -135 38 -83 59 -104 80 -81 36 38 -75 386 -211 665 -63 129 -100
181 -276 391 -70 84 -128 155 -128 158 0 3 21 -10 48 -28 105 -73 262 -256
357 -413 70 -117 178 -244 209 -246 6 0 19 -2 28 -4 45 -8 23 58 -65 202 -63
100 -336 497 -404 586 -51 66 -49 86 6 57 62 -31 323 -301 401 -414 8 -11 19
-26 25 -32 5 -6 33 -40 60 -77 58 -76 81 -91 116 -73 37 18 34 102 -6 182
l-30 60 34 -23 c85 -58 148 3 107 102 -23 54 -90 119 -196 191 -95 64 -161
126 -262 246 -30 36 -68 67 -102 84 -63 32 -65 46 -4 33 70 -16 143 -56 189
-106 156 -166 237 -222 277 -191 15 13 16 57 2 94 -18 48 3 51 67 11 73 -44
103 -52 146 -38 108 36 0 157 -223 251 -102 43 -126 62 -51 39 33 -10 44 -10
54 0 9 10 5 18 -21 41 -36 30 -110 54 -297 95 -294 66 -342 110 -109 100 110
-5 171 -20 312 -74 224 -88 342 -98 357 -31 3 16 0 43 -8 62 -22 52 -62 67
-222 83 -87 8 -155 35 -155 60 0 22 44 30 160 29 134 -1 250 -30 389 -95 155
-74 221 -94 301 -90 36 2 50 14 56 45 7 38 -12 89 -44 121 -21 22 -24 28 -12
36 29 18 87 9 146 -22 32 -17 75 -40 94 -50 69 -37 119 -29 141 22 17 42 -1
77 -60 117 -148 101 -429 134 -771 91 -188 -23 -203 -25 -345 -53 -113 -23
-113 -22 -190 -41 -38 -9 -77 -18 -85 -20 -8 -2 -41 -10 -74 -18 -113 -30
-286 -2 -286 46 0 19 4 19 73 12 96 -11 210 -12 275 -2 99 16 315 99 343 133
24 29 -3 37 -150 49 -35 3 -82 10 -104 16 -50 13 -147 56 -147 64 0 3 4 4 8 1
42 -26 236 -29 331 -6 40 10 77 24 82 31 9 15 -26 59 -48 59 -30 0 -10 17 35
29 58 15 101 44 81 56 -7 5 -62 9 -121 10 -59 1 -110 4 -114 7 -14 15 50 38
156 58 287 51 419 116 350 172 -27 22 -80 37 -148 42 -40 3 -61 -2 -96 -20
-66 -35 -286 -89 -286 -70 0 3 25 17 56 32 60 28 80 57 60 88 -19 29 -40 27
-92 -10 -47 -34 -74 -43 -74 -25 0 5 11 18 24 28 38 29 41 56 7 76 -36 21 -60
22 -88 2 -20 -14 -22 -14 -28 4 -4 13 -13 18 -25 16 -11 -2 -20 0 -20 6 0 5 4
9 9 9 15 0 7 34 -11 48 -23 17 -81 8 -151 -23 -69 -30 -67 -30 -67 -6 0 11 -4
22 -10 26 -5 3 -8 -6 -7 -22 3 -39 -30 -45 -35 -6 -2 16 -8 27 -15 25 -7 -1
-13 0 -13 3 0 9 90 45 111 45 10 0 19 5 19 11 0 7 11 22 25 35 14 13 25 32 25
44 0 16 -7 20 -35 21 -44 2 -47 2 -63 12 -7 5 -14 2 -18 -7 -5 -14 -8 -14 -23
2 -9 10 -13 13 -8 8 17 -23 -2 -31 -30 -13 -6 4 -13 2 -15 -5 -3 -7 -11 -9
-24 -4 -17 7 -16 10 14 35 18 16 71 48 118 72 47 23 88 47 90 51 3 5 -4 24
-16 43 l-21 34 28 15 c32 16 67 22 187 31 80 6 146 26 146 43 0 21 -28 30 -85
28 -85 -5 -147 -21 -240 -65 -113 -54 -154 -66 -168 -51 -9 9 -1 21 36 52 30
26 47 48 47 62 0 26 -29 56 -54 56 -22 0 -86 -33 -122 -63 -40 -33 -118 -77
-136 -77 -8 0 -15 6 -15 13 0 6 -2 17 -3 22 -7 28 1 65 14 65 8 0 17 14 21 30
4 17 13 36 20 43 7 8 39 94 71 193 49 153 58 191 59 262 1 45 -1 82 -5 82 -4
0 -7 6 -8 13 -6 60 -12 80 -31 117 -21 40 -138 170 -154 170 -4 0 -17 8 -28
19 -50 47 -233 116 -359 137 -64 10 -235 11 -304 2z m920 -1594 c-3 -9 -6 -28
-6 -44 0 -24 -5 -29 -36 -35 -20 -3 -38 -5 -40 -3 -2 2 -5 19 -6 37 -3 30 1
35 32 47 49 17 63 17 56 -2z m-1056 -726 c37 -50 47 -66 23 -41 -21 22 -58 59
-83 82 -38 34 -42 40 -24 41 15 0 39 -24 84 -82z m1155 -790 c68 -32 108 -62
182 -132 69 -65 84 -93 26 -49 -43 34 -249 162 -315 198 -27 14 -48 27 -48 29
0 9 110 -24 155 -46z"/>
<path d="M3745 3712 c-27 -5 -122 -49 -128 -59 -7 -11 188 -4 236 8 93 24 -6
71 -108 51z"/>
<path d="M3441 3612 c-6 -11 -8 -22 -5 -25 5 -5 10 -23 14 -52 1 -5 5 1 11 13
5 13 7 27 4 31 -2 4 9 7 24 6 22 -1 28 2 23 13 -4 11 -1 13 9 7 8 -5 11 -5 6
1 -5 5 -18 9 -30 9 -12 1 -27 4 -34 8 -7 5 -16 0 -22 -11z"/>
<path d="M320 3569 c-13 -6 -28 -15 -32 -22 -12 -18 -9 -60 5 -78 12 -15 72
-51 82 -48 5 1 53 -3 210 -17 33 -3 80 -10 105 -16 25 -6 71 -10 104 -9 37 1
77 -6 112 -18 29 -11 82 -27 119 -36 36 -8 83 -24 105 -35 48 -25 51 -17 8 21
-34 30 -116 63 -180 74 -21 3 -38 10 -38 14 0 5 -27 11 -59 14 -64 5 -140 39
-202 88 -21 16 -64 39 -96 50 -65 22 -205 33 -243 18z"/>
<path d="M1025 3460 c-3 -4 1 -12 8 -17 17 -14 185 -98 232 -117 l40 -16 -58
55 c-32 30 -76 64 -97 75 -41 21 -117 33 -125 20z"/>
<path d="M4620 3325 c-57 -16 -205 -83 -243 -110 -21 -16 -21 -16 13 -11 19 3
100 6 180 7 213 2 332 25 338 64 7 53 -168 83 -288 50z"/>
<path d="M366 3063 c-1 -1 -26 -4 -56 -7 -52 -6 -69 -8 -130 -21 -14 -3 -38
-8 -53 -10 -39 -7 -100 -37 -104 -52 -6 -18 60 -35 155 -39 74 -3 92 0 122 17
19 12 39 28 44 36 14 25 72 43 138 43 35 1 90 7 123 14 l60 14 -50 2 c-67 3
-246 5 -249 3z"/>
<path d="M4285 1990 c3 -4 17 -11 32 -15 41 -10 280 -131 326 -165 21 -15 89
-78 151 -138 121 -118 195 -172 235 -172 42 0 52 12 42 48 -38 129 -283 311
-530 391 -115 38 -267 68 -256 51z"/>
<path d="M4129 1651 c14 -26 69 -71 87 -71 8 0 54 -40 102 -88 88 -89 161
-137 250 -163 48 -14 68 -4 58 29 -9 28 -121 142 -186 190 -42 30 -71 42 -120
51 -43 7 -78 21 -106 41 -49 35 -101 42 -85 11z"/>
<path d="M804 1640 c-95 -25 -160 -57 -184 -90 -26 -36 -29 -69 -9 -83 30 -19
87 2 170 66 44 34 98 72 120 85 21 13 39 28 39 33 0 14 -58 10 -136 -11z"/>
<path d="M1500 1489 c-163 -92 -359 -223 -440 -295 -157 -139 -289 -343 -303
-469 -5 -55 7 -75 46 -75 85 0 159 90 227 275 40 110 51 131 117 220 53 73
142 162 228 230 28 22 52 43 55 46 3 3 48 33 100 68 145 97 140 97 -30 0z"/>
<path d="M4170 965 c0 -3 13 -26 29 -52 16 -27 33 -60 36 -75 13 -50 63 -72
97 -42 24 23 23 41 -7 85 -30 42 -155 110 -155 84z"/>
<path d="M3808 880 c13 -19 41 -70 63 -112 40 -80 67 -98 87 -61 16 27 -43
105 -133 176 l-40 32 23 -35z"/>
<path d="M3690 803 c5 -16 32 -95 60 -178 28 -82 50 -150 50 -150 -1 0 1 -7 3
-15 3 -8 10 -33 16 -56 13 -51 51 -108 73 -112 25 -5 33 40 18 107 -13 59
-107 249 -179 364 -24 37 -44 67 -46 67 -2 0 0 -12 5 -27z"/>
</g>
</svg>
