<svg width="18" height="19" viewBox="0 0 18 19" fill="none" xmlns="http://www.w3.org/2000/svg">
<path d="M16.5 18.5H1.5C0.67 18.5 0 17.83 0 17V4C0 3.17 0.67 2.5 1.5 2.5H16.5C17.33 2.5 18 3.17 18 4V17C18 17.83 17.33 18.5 16.5 18.5ZM1.5 3.5C1.22 3.5 1 3.72 1 4V17C1 17.28 1.22 17.5 1.5 17.5H16.5C16.78 17.5 17 17.28 17 17V4C17 3.72 16.78 3.5 16.5 3.5H1.5Z" fill="black"/>
<path d="M17.5 8.5H0.5C0.22 8.5 0 8.28 0 8C0 7.72 0.22 7.5 0.5 7.5H17.5C17.78 7.5 18 7.72 18 8C18 8.28 17.78 8.5 17.5 8.5Z" fill="black"/>
<path d="M4.5 5.5C4.22 5.5 4 5.28 4 5V1C4 0.72 4.22 0.5 4.5 0.5C4.78 0.5 5 0.72 5 1V5C5 5.28 4.78 5.5 4.5 5.5Z" fill="black"/>
<path d="M13.5 5.5C13.22 5.5 13 5.28 13 5V1C13 0.72 13.22 0.5 13.5 0.5C13.78 0.5 14 0.72 14 1V5C14 5.28 13.78 5.5 13.5 5.5Z" fill="black"/>
</svg>
