<svg width="25" height="25" viewBox="0 0 25 25" fill="none" xmlns="http://www.w3.org/2000/svg">
<path d="M22.5 24.6612H2.5C1.39333 24.6612 0.5 23.7679 0.5 22.6612V5.32788C0.5 4.22121 1.39333 3.32788 2.5 3.32788H22.5C23.6067 3.32788 24.5 4.22121 24.5 5.32788V22.6612C24.5 23.7679 23.6067 24.6612 22.5 24.6612ZM2.5 4.66121C2.12667 4.66121 1.83333 4.95455 1.83333 5.32788V22.6612C1.83333 23.0345 2.12667 23.3279 2.5 23.3279H22.5C22.8733 23.3279 23.1667 23.0345 23.1667 22.6612V5.32788C23.1667 4.95455 22.8733 4.66121 22.5 4.66121H2.5Z" fill="#085282"/>
<path d="M23.8333 11.3277H1.16667C0.793333 11.3277 0.5 11.0344 0.5 10.6611C0.5 10.2877 0.793333 9.99438 1.16667 9.99438H23.8333C24.2067 9.99438 24.5 10.2877 24.5 10.6611C24.5 11.0344 24.2067 11.3277 23.8333 11.3277Z" fill="#085282"/>
<path d="M6.50065 7.3278C6.12732 7.3278 5.83398 7.03447 5.83398 6.66113V1.3278C5.83398 0.954466 6.12732 0.661133 6.50065 0.661133C6.87398 0.661133 7.16732 0.954466 7.16732 1.3278V6.66113C7.16732 7.03447 6.87398 7.3278 6.50065 7.3278Z" fill="#085282"/>
<path d="M18.5007 7.3278C18.1273 7.3278 17.834 7.03447 17.834 6.66113V1.3278C17.834 0.954466 18.1273 0.661133 18.5007 0.661133C18.874 0.661133 19.1673 0.954466 19.1673 1.3278V6.66113C19.1673 7.03447 18.874 7.3278 18.5007 7.3278Z" fill="#085282"/>
</svg>
