<svg width="19" height="19" viewBox="0 0 19 19" fill="none" xmlns="http://www.w3.org/2000/svg">
<path d="M17 18.9819H2C1.17 18.9819 0.5 18.3119 0.5 17.4819V4.48193C0.5 3.65193 1.17 2.98193 2 2.98193H17C17.83 2.98193 18.5 3.65193 18.5 4.48193V17.4819C18.5 18.3119 17.83 18.9819 17 18.9819ZM2 3.98193C1.72 3.98193 1.5 4.20193 1.5 4.48193V17.4819C1.5 17.7619 1.72 17.9819 2 17.9819H17C17.28 17.9819 17.5 17.7619 17.5 17.4819V4.48193C17.5 4.20193 17.28 3.98193 17 3.98193H2Z" fill="#D9DBE9"/>
<path d="M18 8.98193H1C0.72 8.98193 0.5 8.76193 0.5 8.48193C0.5 8.20193 0.72 7.98193 1 7.98193H18C18.28 7.98193 18.5 8.20193 18.5 8.48193C18.5 8.76193 18.28 8.98193 18 8.98193Z" fill="#D9DBE9"/>
<path d="M5 5.98193C4.72 5.98193 4.5 5.76193 4.5 5.48193V1.48193C4.5 1.20193 4.72 0.981934 5 0.981934C5.28 0.981934 5.5 1.20193 5.5 1.48193V5.48193C5.5 5.76193 5.28 5.98193 5 5.98193Z" fill="#D9DBE9"/>
<path d="M14 5.98193C13.72 5.98193 13.5 5.76193 13.5 5.48193V1.48193C13.5 1.20193 13.72 0.981934 14 0.981934C14.28 0.981934 14.5 1.20193 14.5 1.48193V5.48193C14.5 5.76193 14.28 5.98193 14 5.98193Z" fill="#D9DBE9"/>
</svg>
