<svg width="18" height="16" viewBox="0 0 18 16" fill="none" xmlns="http://www.w3.org/2000/svg">
<path d="M16.5 15.5H1.5C0.67 15.5 0 14.83 0 14V2C0 1.17 0.67 0.5 1.5 0.5H16.5C17.33 0.5 18 1.17 18 2V14C18 14.83 17.33 15.5 16.5 15.5ZM1.5 1.5C1.22 1.5 1 1.72 1 2V14C1 14.28 1.22 14.5 1.5 14.5H16.5C16.78 14.5 17 14.28 17 14V2C17 1.72 16.78 1.5 16.5 1.5H1.5Z" fill="black"/>
<path d="M8.9999 9.00038C8.8799 9.00038 8.7699 8.96038 8.6799 8.88038L0.4299 1.88038C0.2199 1.70038 0.1899 1.39038 0.3699 1.18038C0.5499 0.970379 0.8599 0.940379 1.0799 1.12038L8.9999 7.84038L16.9299 1.11038C17.1399 0.930379 17.4599 0.960379 17.6299 1.17038C17.8099 1.38038 17.7799 1.70038 17.5699 1.87038L9.3199 8.87038C9.2299 8.96038 9.1199 9.00038 8.9999 9.00038Z" fill="black"/>
</svg>
