<svg width="16" height="19" viewBox="0 0 16 19" fill="none" xmlns="http://www.w3.org/2000/svg">
<path d="M14.5 18.5H1.5C0.67 18.5 0 17.83 0 17V8C0 7.17 0.67 6.5 1.5 6.5H14.5C15.33 6.5 16 7.17 16 8V17C16 17.83 15.33 18.5 14.5 18.5ZM1.5 7.5C1.22 7.5 1 7.72 1 8V17C1 17.28 1.22 17.5 1.5 17.5H14.5C14.78 17.5 15 17.28 15 17V8C15 7.72 14.78 7.5 14.5 7.5H1.5Z" fill="black"/>
<path d="M13.4999 7.25C13.2199 7.25 12.9999 7.03 12.9999 6.75C12.9999 3.99 10.7399 1.75 7.96991 1.75C6.36991 1.75 4.84991 2.52 3.90991 3.8C3.73991 4.02 3.42991 4.07 3.19991 3.9C2.97991 3.74 2.92991 3.42 3.09991 3.2C4.22991 1.66 6.04991 0.75 7.96991 0.75C11.2999 0.75 13.9999 3.44 13.9999 6.75C13.9999 7.03 13.7799 7.25 13.4999 7.25Z" fill="black"/>
<path d="M8 14.5C6.9 14.5 6 13.6 6 12.5C6 11.4 6.9 10.5 8 10.5C9.1 10.5 10 11.4 10 12.5C10 13.6 9.1 14.5 8 14.5ZM8 11.5C7.45 11.5 7 11.95 7 12.5C7 13.05 7.45 13.5 8 13.5C8.55 13.5 9 13.05 9 12.5C9 11.95 8.55 11.5 8 11.5Z" fill="#231F20"/>
</svg>
