<svg width="20" height="20" viewBox="0 0 20 20" fill="none" xmlns="http://www.w3.org/2000/svg">
<path d="M13.8401 19.9997C13.2101 19.9997 12.5401 19.9197 11.8501 19.7697C9.41009 19.2297 6.91009 17.7697 4.81009 15.6797C0.430094 11.2897 -0.809906 5.38968 2.06009 2.52968C2.90009 1.68968 3.92009 1.17968 5.10009 0.999679C5.32009 0.969679 5.54009 1.08968 5.63009 1.29968L7.70009 6.13968C7.80009 6.37968 7.70009 6.66968 7.46009 6.77968L5.56009 7.73968C5.45009 7.79968 5.36009 7.89968 5.32009 8.01968C5.28009 8.14968 5.29009 8.28968 5.36009 8.39968C6.01009 9.62968 7.00009 10.9097 8.29009 12.1997C9.52009 13.4397 10.8001 14.4197 12.0801 15.1097C12.2101 15.1797 12.3501 15.1897 12.4801 15.1497C12.6001 15.1097 12.7001 15.0297 12.7601 14.9097L13.7101 13.0197C13.8101 12.8297 14.0101 12.7197 14.2301 12.7497L19.0701 13.4397C19.3101 13.4697 19.4901 13.6697 19.5001 13.9097C19.5901 15.7797 19.0601 17.3497 17.9701 18.4297C16.9401 19.4697 15.5101 19.9997 13.8401 19.9997ZM4.87009 2.05968C4.06009 2.24968 3.36009 2.63968 2.76009 3.23968C0.290094 5.70968 1.53009 10.9797 5.52009 14.9797C7.48009 16.9397 9.81009 18.2997 12.0701 18.7997C14.2501 19.2897 16.0901 18.9097 17.2501 17.7397C18.0501 16.9397 18.4801 15.7797 18.4901 14.3797L14.4301 13.7997L13.6401 15.3697C13.4601 15.7297 13.1501 15.9897 12.7701 16.1197C12.3801 16.2397 11.9501 16.1997 11.5901 15.9997C10.2201 15.2597 8.87009 14.2197 7.57009 12.9197C6.21009 11.5597 5.16009 10.1997 4.46009 8.87968C4.27009 8.51968 4.23009 8.10968 4.36009 7.71968C4.48009 7.33968 4.75009 7.02968 5.11009 6.84968L6.60009 6.09968L4.87009 2.05968Z" fill="black"/>
</svg>
