<svg width="17" height="19" viewBox="0 0 17 19" fill="none" xmlns="http://www.w3.org/2000/svg">
<path d="M8.50513 8.24756C6.29513 8.24756 4.50513 6.45756 4.50513 4.24756C4.50513 2.03756 6.29513 0.247559 8.50513 0.247559C10.7151 0.247559 12.5051 2.03756 12.5051 4.24756C12.5051 6.45756 10.7151 8.24756 8.50513 8.24756ZM8.50513 1.24756C6.85513 1.24756 5.50513 2.59756 5.50513 4.24756C5.50513 5.89756 6.85513 7.24756 8.50513 7.24756C10.1551 7.24756 11.5051 5.89756 11.5051 4.24756C11.5051 2.59756 10.1551 1.24756 8.50513 1.24756Z" fill="black"/>
<path d="M16.5051 18.7476C16.3051 18.7476 16.1151 18.6276 16.0451 18.4376C14.2351 13.9376 11.4251 11.2476 8.50509 11.2476C5.58509 11.2476 2.77509 13.9376 0.965094 18.4376C0.865094 18.6976 0.575094 18.8176 0.315094 18.7176C0.0550936 18.6176 -0.0649064 18.3276 0.0350936 18.0676C2.02509 13.0976 5.11509 10.2476 8.50509 10.2476C11.8951 10.2476 14.9851 13.0976 16.9651 18.0576C17.0651 18.3176 16.9451 18.6076 16.6851 18.7076C16.6251 18.7376 16.5651 18.7476 16.5051 18.7476Z" fill="black"/>
</svg>
