<svg width="24" height="24" viewBox="0 0 24 24" fill="none" xmlns="http://www.w3.org/2000/svg">
<path d="M20.5416 3.65695C18.5278 1.66654 15.8521 0.445364 12.9978 0.213904C10.1434 -0.0175566 7.29843 0.755949 4.97647 2.39477C2.6545 4.03359 1.00858 6.42973 0.335853 9.15058C-0.336871 11.8714 0.00793954 14.7377 1.30803 17.2318L0.0342824 23.2755C0.0206439 23.3359 0.0201154 23.3983 0.0327312 23.4589C0.045347 23.5195 0.0708262 23.5768 0.107523 23.6272C0.160075 23.7034 0.235196 23.7621 0.322833 23.7955C0.41047 23.8289 0.506445 23.8353 0.597916 23.8139L6.64822 22.4103C9.19332 23.6476 12.1051 23.9621 14.8652 23.2979C17.6254 22.6337 20.0548 21.0338 21.7211 18.7831C23.3874 16.5324 24.1825 13.7768 23.9647 11.0069C23.747 8.23704 22.5306 5.63251 20.5321 3.65695H20.5416ZM18.6501 18.3989C17.2573 19.7576 15.4638 20.6556 13.5218 20.9665C11.5798 21.2774 9.58684 20.9857 7.82325 20.1323L6.97621 19.7215L3.26005 20.5804V20.5338L4.0434 16.8708L3.62943 16.0741C2.72769 14.3459 2.4093 12.3829 2.71994 10.4669C3.03059 8.55083 3.95431 6.7802 5.35855 5.40905C7.12175 3.68766 9.51207 2.72075 12.0043 2.72075C14.4966 2.72075 16.8869 3.68766 18.6501 5.40905L18.6915 5.46507C20.4318 7.19192 21.4033 9.52093 21.3943 11.9447C21.3854 14.3685 20.3967 16.6906 18.6437 18.4051L18.6501 18.3989Z" fill="#00BA88"/>
<path d="M18.3217 15.735C17.8664 16.4352 17.1435 17.291 16.2423 17.5057C14.6501 17.8792 12.2268 17.5057 9.19212 14.764L9.15391 14.7298C6.51407 12.321 5.8135 10.3137 5.96954 8.72348C6.06188 7.81786 6.8325 7.0025 7.48211 6.46723C7.5854 6.38212 7.70762 6.3218 7.83901 6.29109C7.97041 6.26039 8.10733 6.26015 8.23883 6.29039C8.37034 6.32063 8.49279 6.38051 8.59638 6.46525C8.69998 6.54999 8.78186 6.65725 8.83547 6.77843L9.81308 8.93821C9.8769 9.07724 9.90083 9.23061 9.88232 9.38191C9.86381 9.5332 9.80355 9.67674 9.70799 9.79714L9.21123 10.4196C9.10798 10.5488 9.04647 10.7051 9.03456 10.8686C9.02265 11.0321 9.06087 11.1954 9.14436 11.3376C9.61623 12.0173 10.1808 12.6309 10.8225 13.1613C11.5129 13.8106 12.2959 14.3589 13.1471 14.7889C13.3025 14.8501 13.4729 14.8647 13.6368 14.8309C13.8007 14.7971 13.9506 14.7164 14.0674 14.5991L14.6374 14.0327C14.7459 13.9187 14.8845 13.8363 15.0379 13.7945C15.1914 13.7528 15.3536 13.7533 15.5067 13.7961L17.8313 14.4466C17.9631 14.4832 18.0841 14.5496 18.1847 14.6405C18.2853 14.7313 18.3626 14.844 18.4103 14.9694C18.458 15.0949 18.4749 15.2295 18.4595 15.3625C18.4441 15.4955 18.3969 15.6231 18.3217 15.735Z" fill="#00BA88"/>
</svg>
