<?xml version="1.0" encoding="UTF-8"?>
<svg xmlns="http://www.w3.org/2000/svg" width="20" height="20" viewBox="0 0 20 20" fill="none">
  <rect width="20" height="20" rx="3" fill="#0088CC"></rect>
  <path d="M13.3176 15.6841C13.0553 15.684 12.8005 15.5964 12.5936 15.4351L10.2426 13.6139L8.66636 15.3537C8.59699 15.4302 8.50856 15.4869 8.41009 15.518C8.31163 15.5491 8.20667 15.5536 8.10593 15.5309C8.00519 15.5081 7.91228 15.4591 7.8367 15.3887C7.76112 15.3184 7.70556 15.2292 7.67572 15.1304L6.49709 11.2327L4.38251 10.4973C4.15422 10.4178 3.95554 10.2706 3.81285 10.0755C3.67017 9.88035 3.59024 9.6464 3.58369 9.40474C3.57714 9.16308 3.64427 8.92515 3.77616 8.72255C3.90806 8.51996 4.09848 8.36229 4.32212 8.27049L14.7754 4.04987C14.9749 3.96879 15.1926 3.94327 15.4054 3.97603C15.6182 4.00879 15.8181 4.09861 15.984 4.23593C16.1498 4.37325 16.2753 4.55294 16.3472 4.7559C16.419 4.95886 16.4346 5.1775 16.3921 5.38858L14.4889 14.7316C14.4325 15.0006 14.2853 15.2421 14.0721 15.4155C13.8589 15.5889 13.5925 15.6837 13.3176 15.6841H13.3176Z" fill="white"></path>
  <path d="M8.23406 15.5451C8.10888 15.5451 7.98701 15.5049 7.88648 15.4303C7.78595 15.3557 7.71208 15.2507 7.67581 15.1309L6.41114 10.9547C6.37161 10.8246 6.37885 10.6847 6.43159 10.5594C6.48434 10.434 6.57928 10.3311 6.69996 10.2683L12.8643 7.05884C12.9878 6.99436 13.1304 6.97626 13.2662 7.00784C13.4019 7.03941 13.5219 7.11856 13.6043 7.23095C13.6868 7.34334 13.7262 7.48154 13.7155 7.62052C13.7049 7.75949 13.6448 7.89004 13.5462 7.98853L9.4144 12.1203L8.80543 15.0791C8.77941 15.2062 8.71171 15.321 8.61306 15.4053C8.51442 15.4896 8.39046 15.5386 8.26083 15.5445C8.25172 15.5451 8.2426 15.5451 8.23406 15.5451Z" fill="#0088CC"></path>
</svg>
