<svg width="36" height="36" viewBox="0 0 36 36" fill="none" xmlns="http://www.w3.org/2000/svg">
<path d="M13.625 14.6297C13.2382 14.6297 12.8673 14.7834 12.5938 15.0568C12.3203 15.3303 12.1666 15.7013 12.1666 16.088V19.0047C12.1666 19.3915 12.3203 19.7624 12.5938 20.0359C12.8673 20.3094 13.2382 20.463 13.625 20.463C14.0117 20.463 14.3827 20.3094 14.6562 20.0359C14.9296 19.7624 15.0833 19.3915 15.0833 19.0047V16.088C15.0833 15.7013 14.9296 15.3303 14.6562 15.0568C14.3827 14.7834 14.0117 14.6297 13.625 14.6297ZM31.125 16.088C31.5117 16.088 31.8827 15.9344 32.1562 15.6609C32.4296 15.3874 32.5833 15.0165 32.5833 14.6297V8.79638C32.5833 8.4096 32.4296 8.03867 32.1562 7.76518C31.8827 7.49169 31.5117 7.33804 31.125 7.33804H4.87496C4.48819 7.33804 4.11725 7.49169 3.84376 7.76518C3.57027 8.03867 3.41663 8.4096 3.41663 8.79638V14.6297C3.41663 15.0165 3.57027 15.3874 3.84376 15.6609C4.11725 15.9344 4.48819 16.088 4.87496 16.088C5.26173 16.088 5.63267 16.2417 5.90616 16.5152C6.17965 16.7887 6.33329 17.1596 6.33329 17.5464C6.33329 17.9332 6.17965 18.3041 5.90616 18.5776C5.63267 18.8511 5.26173 19.0047 4.87496 19.0047C4.48819 19.0047 4.11725 19.1584 3.84376 19.4318C3.57027 19.7053 3.41663 20.0763 3.41663 20.463V26.2964C3.41663 26.6832 3.57027 27.0541 3.84376 27.3276C4.11725 27.6011 4.48819 27.7547 4.87496 27.7547H31.125C31.5117 27.7547 31.8827 27.6011 32.1562 27.3276C32.4296 27.0541 32.5833 26.6832 32.5833 26.2964V20.463C32.5833 20.0763 32.4296 19.7053 32.1562 19.4318C31.8827 19.1584 31.5117 19.0047 31.125 19.0047C30.7382 19.0047 30.3673 18.8511 30.0938 18.5776C29.8203 18.3041 29.6666 17.9332 29.6666 17.5464C29.6666 17.1596 29.8203 16.7887 30.0938 16.5152C30.3673 16.2417 30.7382 16.088 31.125 16.088ZM29.6666 13.4339C28.822 13.7404 28.0923 14.2996 27.5766 15.0354C27.0609 15.7711 26.7843 16.6479 26.7843 17.5464C26.7843 18.4449 27.0609 19.3216 27.5766 20.0574C28.0923 20.7932 28.822 21.3523 29.6666 21.6589V24.838H15.0833C15.0833 24.4513 14.9296 24.0803 14.6562 23.8068C14.3827 23.5334 14.0117 23.3797 13.625 23.3797C13.2382 23.3797 12.8673 23.5334 12.5938 23.8068C12.3203 24.0803 12.1666 24.4513 12.1666 24.838H6.33329V21.6589C7.17789 21.3523 7.90762 20.7932 8.42332 20.0574C8.93901 19.3216 9.21565 18.4449 9.21565 17.5464C9.21565 16.6479 8.93901 15.7711 8.42332 15.0354C7.90762 14.2996 7.17789 13.7404 6.33329 13.4339V10.2547H12.1666C12.1666 10.6415 12.3203 11.0124 12.5938 11.2859C12.8673 11.5594 13.2382 11.713 13.625 11.713C14.0117 11.713 14.3827 11.5594 14.6562 11.2859C14.9296 11.0124 15.0833 10.6415 15.0833 10.2547H29.6666V13.4339Z" fill="white"/>
</svg>
