<svg width="24" height="23" viewBox="0 0 24 23" fill="none" xmlns="http://www.w3.org/2000/svg">
<path d="M16.7918 10.5417H9.51802L12.6805 7.38876C12.861 7.20831 12.9624 6.96355 12.9624 6.70835C12.9624 6.45314 12.861 6.20839 12.6805 6.02793C12.5001 5.84747 12.2553 5.74609 12.0001 5.74609C11.7449 5.74609 11.5001 5.84747 11.3197 6.02793L6.52802 10.8196C6.44077 10.9107 6.37238 11.0182 6.32677 11.1358C6.23092 11.3692 6.23092 11.6309 6.32677 11.8642C6.37238 11.9818 6.44077 12.0893 6.52802 12.1804L11.3197 16.9721C11.4088 17.0619 11.5148 17.1332 11.6316 17.1819C11.7483 17.2305 11.8736 17.2556 12.0001 17.2556C12.1266 17.2556 12.2519 17.2305 12.3687 17.1819C12.4854 17.1332 12.5914 17.0619 12.6805 16.9721C12.7703 16.883 12.8416 16.777 12.8903 16.6602C12.9389 16.5435 12.964 16.4182 12.964 16.2917C12.964 16.1652 12.9389 16.0399 12.8903 15.9231C12.8416 15.8063 12.7703 15.7004 12.6805 15.6113L9.51802 12.4583H16.7918C17.0459 12.4583 17.2897 12.3574 17.4694 12.1777C17.6491 11.9979 17.7501 11.7542 17.7501 11.5C17.7501 11.2458 17.6491 11.0021 17.4694 10.8224C17.2897 10.6426 17.0459 10.5417 16.7918 10.5417Z" fill="#085282"/>
</svg>
