<svg width="24" height="23" viewBox="0 0 24 23" fill="none" xmlns="http://www.w3.org/2000/svg">
<path d="M7.20835 12.4583H14.4821L11.3196 15.6112C11.1391 15.7917 11.0378 16.0364 11.0378 16.2917C11.0378 16.5469 11.1391 16.7916 11.3196 16.9721C11.5001 17.1525 11.7448 17.2539 12 17.2539C12.2552 17.2539 12.5 17.1525 12.6804 16.9721L17.4721 12.1804C17.5593 12.0893 17.6277 11.9818 17.6734 11.8642C17.7692 11.6308 17.7692 11.3691 17.6734 11.1358C17.6277 11.0182 17.5593 10.9107 17.4721 10.8196L12.6804 6.0279C12.5913 5.93808 12.4854 5.86678 12.3686 5.81813C12.2518 5.76948 12.1265 5.74443 12 5.74443C11.8735 5.74443 11.7482 5.76948 11.6315 5.81813C11.5147 5.86678 11.4087 5.93808 11.3196 6.0279C11.2298 6.11699 11.1585 6.22298 11.1098 6.33977C11.0612 6.45655 11.0361 6.58181 11.0361 6.70832C11.0361 6.83483 11.0612 6.96009 11.1098 7.07687C11.1585 7.19365 11.2298 7.29965 11.3196 7.38873L14.4821 10.5417H7.20835C6.95418 10.5417 6.71043 10.6426 6.53071 10.8223C6.35098 11.0021 6.25002 11.2458 6.25002 11.5C6.25002 11.7542 6.35098 11.9979 6.53071 12.1776C6.71043 12.3574 6.95418 12.4583 7.20835 12.4583Z" fill="#085282"/>
</svg>
