<svg width="20" height="21" viewBox="0 0 20 21" fill="none" xmlns="http://www.w3.org/2000/svg">
<circle cx="10" cy="10.3318" r="10" fill="#C30052"/>
<path d="M10.881 10.3319L13.5685 7.65065C13.6862 7.53296 13.7523 7.37334 13.7523 7.2069C13.7523 7.04046 13.6862 6.88084 13.5685 6.76315C13.4508 6.64546 13.2912 6.57935 13.1247 6.57935C12.9583 6.57935 12.7987 6.64546 12.681 6.76315L9.99972 9.45065L7.31847 6.76315C7.20078 6.64546 7.04116 6.57935 6.87472 6.57935C6.70828 6.57935 6.54866 6.64546 6.43097 6.76315C6.31328 6.88084 6.24716 7.04046 6.24716 7.2069C6.24716 7.37334 6.31328 7.53296 6.43097 7.65065L9.11847 10.3319L6.43097 13.0132C6.37239 13.0713 6.32589 13.1404 6.29416 13.2165C6.26243 13.2927 6.24609 13.3744 6.24609 13.4569C6.24609 13.5394 6.26243 13.6211 6.29416 13.6973C6.32589 13.7734 6.37239 13.8426 6.43097 13.9007C6.48907 13.9592 6.5582 14.0057 6.63436 14.0375C6.71052 14.0692 6.79221 14.0855 6.87472 14.0855C6.95723 14.0855 7.03892 14.0692 7.11508 14.0375C7.19124 14.0057 7.26037 13.9592 7.31847 13.9007L9.99972 11.2132L12.681 13.9007C12.7391 13.9592 12.8082 14.0057 12.8844 14.0375C12.9605 14.0692 13.0422 14.0855 13.1247 14.0855C13.2072 14.0855 13.2889 14.0692 13.3651 14.0375C13.4412 14.0057 13.5104 13.9592 13.5685 13.9007C13.627 13.8426 13.6735 13.7734 13.7053 13.6973C13.737 13.6211 13.7533 13.5394 13.7533 13.4569C13.7533 13.3744 13.737 13.2927 13.7053 13.2165C13.6735 13.1404 13.627 13.0713 13.5685 13.0132L10.881 10.3319Z" fill="white"/>
</svg>
