<svg width="20" height="21" viewBox="0 0 20 21" fill="none" xmlns="http://www.w3.org/2000/svg">
<path d="M20 5.05952C19.9888 4.62809 19.9554 4.19753 19.9 3.76952C19.8253 3.39465 19.7009 3.03143 19.53 2.68952C19.3513 2.31863 19.1112 1.98055 18.82 1.68952C18.5261 1.40173 18.1886 1.16211 17.82 0.979522C17.4776 0.811966 17.1144 0.690895 16.74 0.619521C16.3161 0.556021 15.8886 0.519282 15.46 0.509521H4.55C4.11857 0.520758 3.68801 0.554135 3.26 0.609521C2.88512 0.68419 2.52191 0.808625 2.18 0.979522C1.8091 1.15826 1.47103 1.39829 1.18 1.68952C0.892204 1.98343 0.652591 2.32092 0.47 2.68952C0.302444 3.03188 0.181373 3.3951 0.11 3.76952C0.0464994 4.19346 0.0097601 4.62097 0 5.04952C0 5.23952 0 5.50952 0 5.58952V15.4295C0 15.5395 0 15.7795 0 15.9595C0.0112364 16.391 0.0446136 16.8215 0.0999999 17.2495C0.174668 17.6244 0.299103 17.9876 0.47 18.3295C0.648737 18.7004 0.888773 19.0385 1.18 19.3295C1.47391 19.6173 1.81139 19.8569 2.18 20.0395C2.52236 20.2071 2.88558 20.3281 3.26 20.3995C3.68393 20.463 4.11145 20.4998 4.54 20.5095H15.45C15.8814 20.4983 16.312 20.4649 16.74 20.4095C17.1149 20.3349 17.4781 20.2104 17.82 20.0395C18.1909 19.8608 18.529 19.6207 18.82 19.3295C19.1078 19.0356 19.3474 18.6981 19.53 18.3295C19.6976 17.9872 19.8186 17.6239 19.89 17.2495C19.9535 16.8256 19.9902 16.3981 20 15.9695C20 15.7795 20 15.5395 20 15.4295V5.58952C20 5.50952 20 5.23952 20 5.05952ZM10.23 17.5095C9.02906 17.5036 7.84913 17.194 6.8 16.6095L3 17.6095L4 13.8895C3.35511 12.806 3.00999 11.5704 3 10.3095C3.00398 8.89245 3.4272 7.50824 4.21636 6.33123C5.00552 5.15422 6.12532 4.23705 7.43473 3.69524C8.74414 3.15342 10.1846 3.01119 11.5747 3.28646C12.9648 3.56173 14.2423 4.24218 15.2464 5.24213C16.2505 6.24207 16.9363 7.51678 17.2173 8.90571C17.4984 10.2946 17.3622 11.7357 16.8258 13.0473C16.2894 14.359 15.3769 15.4826 14.2032 16.2766C13.0295 17.0707 11.647 17.4996 10.23 17.5095ZM10.23 4.37952C9.16981 4.39165 8.13177 4.6845 7.22156 5.22826C6.31135 5.77201 5.56148 6.54725 5.0483 7.47504C4.53512 8.40283 4.27695 9.45004 4.30008 10.51C4.32322 11.5701 4.62683 12.605 5.18 13.5095L5.32 13.7395L4.72 15.9295L7 15.3095L7.22 15.4395C8.12957 15.9753 9.1644 16.2616 10.22 16.2695C11.8113 16.2695 13.3374 15.6374 14.4626 14.5122C15.5879 13.3869 16.22 11.8608 16.22 10.2695C16.22 8.67822 15.5879 7.1521 14.4626 6.02688C13.3374 4.90166 11.8113 4.26952 10.22 4.26952L10.23 4.37952ZM13.73 12.8995C13.599 13.118 13.4236 13.3065 13.2152 13.4529C13.0068 13.5994 12.7699 13.7004 12.52 13.7495C12.1465 13.8178 11.7621 13.7938 11.4 13.6795C11.0593 13.573 10.7254 13.4461 10.4 13.2995C9.16374 12.6792 8.10944 11.7489 7.34 10.5995C6.92188 10.067 6.66819 9.42407 6.61 8.74952C6.60405 8.46931 6.65705 8.19098 6.76558 7.93257C6.87412 7.67416 7.03575 7.44145 7.24 7.24952C7.30016 7.18131 7.37397 7.12648 7.45665 7.08859C7.53934 7.05069 7.62905 7.03057 7.72 7.02952H8C8.11 7.02952 8.26 7.02952 8.4 7.33952C8.54 7.64952 8.91 8.57952 8.96 8.66952C8.98457 8.71749 8.99739 8.77062 8.99739 8.82452C8.99739 8.87842 8.98457 8.93155 8.96 8.97952C8.91579 9.08819 8.85508 9.18938 8.78 9.27952C8.69 9.38952 8.59 9.51952 8.51 9.59952C8.43 9.67952 8.33 9.77952 8.43 9.95952C8.70209 10.4187 9.03888 10.8363 9.43 11.1995C9.85593 11.5759 10.3429 11.8769 10.87 12.0895C11.05 12.1795 11.16 12.1695 11.26 12.0895C11.36 12.0095 11.71 11.5695 11.83 11.3895C11.95 11.2095 12.07 11.2395 12.23 11.2995C12.39 11.3595 13.28 11.7895 13.46 11.8795C13.64 11.9695 13.75 12.0095 13.8 12.0895C13.8434 12.3512 13.8193 12.6197 13.73 12.8695V12.8995Z" fill="#FCFCFC"/>
</svg>
