<svg xmlns="http://www.w3.org/2000/svg" xmlns:xlink="http://www.w3.org/1999/xlink" width="60" zoomAndPan="magnify"
     viewBox="0 0 45 44.999999" height="60" preserveAspectRatio="xMidYMid meet" version="1.0">
    <defs>
        <g/>
        <clipPath id="b9a5bcb21a">
            <path d="M 18 16 L 19 16 L 19 17.992188 L 18 17.992188 Z M 18 16 " clip-rule="nonzero"/>
        </clipPath>
        <clipPath id="3e1219e308">
            <path d="M 18 16 L 20 16 L 20 17.992188 L 18 17.992188 Z M 18 16 " clip-rule="nonzero"/>
        </clipPath>
        <clipPath id="f808e29cc4">
            <path d="M 19 16 L 20 16 L 20 17.992188 L 19 17.992188 Z M 19 16 " clip-rule="nonzero"/>
        </clipPath>
        <clipPath id="4f88fc02a2">
            <path d="M 20 16 L 21 16 L 21 17.992188 L 20 17.992188 Z M 20 16 " clip-rule="nonzero"/>
        </clipPath>
        <clipPath id="905421d9c6">
            <path d="M 20 16 L 22 16 L 22 17.992188 L 20 17.992188 Z M 20 16 " clip-rule="nonzero"/>
        </clipPath>
        <clipPath id="297888710b">
            <path d="M 21 16 L 22 16 L 22 17.992188 L 21 17.992188 Z M 21 16 " clip-rule="nonzero"/>
        </clipPath>
        <clipPath id="897fd36d1b">
            <path d="M 22 16 L 23 16 L 23 17.992188 L 22 17.992188 Z M 22 16 " clip-rule="nonzero"/>
        </clipPath>
        <clipPath id="fd75839564">
            <path d="M 23 16 L 24 16 L 24 17.992188 L 23 17.992188 Z M 23 16 " clip-rule="nonzero"/>
        </clipPath>
        <clipPath id="fae885bee5">
            <path d="M 14.714844 10 L 16 10 L 16 12 L 14.714844 12 Z M 14.714844 10 " clip-rule="nonzero"/>
        </clipPath>
        <clipPath id="70073ef3f3">
            <path d="M 28 10 L 29.714844 10 L 29.714844 12 L 28 12 Z M 28 10 " clip-rule="nonzero"/>
        </clipPath>
        <clipPath id="fc55bb10d7">
            <path d="M 28 17 L 29.714844 17 L 29.714844 17.992188 L 28 17.992188 Z M 28 17 " clip-rule="nonzero"/>
        </clipPath>
        <clipPath id="c8bb108345">
            <path d="M 14.714844 17 L 16 17 L 16 17.992188 L 14.714844 17.992188 Z M 14.714844 17 "
                  clip-rule="nonzero"/>
        </clipPath>
        <clipPath id="28fcbe4e68">
            <path d="M 14.714844 13 L 16 13 L 16 15 L 14.714844 15 Z M 14.714844 13 " clip-rule="nonzero"/>
        </clipPath>
        <clipPath id="77505c1013">
            <path d="M 14.714844 14 L 16 14 L 16 16 L 14.714844 16 Z M 14.714844 14 " clip-rule="nonzero"/>
        </clipPath>
        <clipPath id="d34ec7ce27">
            <path d="M 15 17 L 29 17 L 29 17.992188 L 15 17.992188 Z M 15 17 " clip-rule="nonzero"/>
        </clipPath>
        <clipPath id="5531463be8">
            <path d="M 14.714844 11 L 15 11 L 15 14 L 14.714844 14 Z M 14.714844 11 " clip-rule="nonzero"/>
        </clipPath>
        <clipPath id="def4cf27d8">
            <path d="M 14.714844 15 L 15 15 L 15 17.992188 L 14.714844 17.992188 Z M 14.714844 15 "
                  clip-rule="nonzero"/>
        </clipPath>
        <clipPath id="79bd734d6d">
            <path d="M 28 14 L 29.714844 14 L 29.714844 16 L 28 16 Z M 28 14 " clip-rule="nonzero"/>
        </clipPath>
        <clipPath id="f4b1c77919">
            <path d="M 28 13 L 29.714844 13 L 29.714844 15 L 28 15 Z M 28 13 " clip-rule="nonzero"/>
        </clipPath>
        <clipPath id="24a190a4c8">
            <path d="M 29 15 L 29.714844 15 L 29.714844 17.992188 L 29 17.992188 Z M 29 15 " clip-rule="nonzero"/>
        </clipPath>
        <clipPath id="5f96d529ed">
            <path d="M 29 11 L 29.714844 11 L 29.714844 14 L 29 14 Z M 29 11 " clip-rule="nonzero"/>
        </clipPath>
        <clipPath id="9991c36b4a">
            <path d="M 26 16 L 27 16 L 27 17.992188 L 26 17.992188 Z M 26 16 " clip-rule="nonzero"/>
        </clipPath>
        <clipPath id="6272703ece">
            <path d="M 27 11 L 28 11 L 28 17.992188 L 27 17.992188 Z M 27 11 " clip-rule="nonzero"/>
        </clipPath>
        <clipPath id="3b41503270">
            <path d="M 26 6.742188 L 29 6.742188 L 29 8 L 26 8 Z M 26 6.742188 " clip-rule="nonzero"/>
        </clipPath>
        <clipPath id="527c7454cd">
            <path d="M 17 6.742188 L 28 6.742188 L 28 11 L 17 11 Z M 17 6.742188 " clip-rule="nonzero"/>
        </clipPath>
        <clipPath id="ba818e1437">
            <path d="M 28 10 L 29.714844 10 L 29.714844 11 L 28 11 Z M 28 10 " clip-rule="nonzero"/>
        </clipPath>
    </defs>
    <path fill="#ffbd59"
          d="M 22.5 0 C 26.15625 3.601562 24.863281 3.398438 29.453125 1.101562 C 31.816406 5.65625 30.652344 5.0625 35.722656 4.296875 C 36.566406 9.359375 35.640625 8.433594 40.703125 9.273438 C 39.9375 14.347656 39.34375 13.183594 43.898438 15.546875 C 41.601562 20.136719 41.398438 18.84375 45 22.5 C 41.398438 26.15625 41.601562 24.863281 43.898438 29.453125 C 39.34375 31.816406 39.9375 30.652344 40.703125 35.726562 C 35.640625 36.566406 36.566406 35.640625 35.726562 40.703125 C 30.652344 39.9375 31.816406 39.34375 29.453125 43.898438 C 24.863281 41.601562 26.15625 41.398438 22.5 45 C 18.84375 41.398438 20.136719 41.601562 15.546875 43.898438 C 13.183594 39.34375 14.347656 39.9375 9.273438 40.703125 C 8.433594 35.640625 9.359375 36.566406 4.296875 35.726562 C 5.0625 30.652344 5.65625 31.816406 1.101562 29.453125 C 3.429688 24.796875 3.769531 26.324219 0 22.5 C 3.601562 18.84375 3.398438 20.136719 1.101562 15.546875 C 5.65625 13.183594 5.0625 14.347656 4.296875 9.273438 C 9.359375 8.433594 8.433594 9.359375 9.273438 4.296875 C 14.347656 5.0625 13.183594 5.65625 15.546875 1.101562 C 20.136719 3.398438 18.84375 3.601562 22.5 0 Z M 22.5 0 "
          fill-opacity="1" fill-rule="evenodd"/>
    <path fill="#ffffff"
          d="M 22.636719 2.753906 C 23.082031 3.191406 23.441406 3.5625 23.742188 3.878906 C 24.496094 4.65625 24.875 5.046875 25.253906 5.109375 C 25.632812 5.167969 26.113281 4.914062 27.074219 4.402344 C 27.445312 4.207031 27.886719 3.96875 28.46875 3.679688 C 28.566406 3.632812 28.683594 3.671875 28.734375 3.765625 C 29.027344 4.332031 29.25 4.789062 29.4375 5.171875 C 29.914062 6.148438 30.152344 6.636719 30.492188 6.808594 C 30.835938 6.984375 31.371094 6.890625 32.441406 6.703125 C 32.871094 6.628906 33.382812 6.539062 33.992188 6.445312 C 34.101562 6.429688 34.203125 6.503906 34.21875 6.609375 L 34.21875 6.621094 C 34.320312 7.234375 34.390625 7.738281 34.453125 8.164062 C 34.601562 9.238281 34.679688 9.777344 34.949219 10.046875 L 34.949219 10.050781 L 34.949219 10.046875 C 35.222656 10.320312 35.761719 10.398438 36.835938 10.546875 C 37.261719 10.609375 37.773438 10.679688 38.390625 10.78125 C 38.496094 10.800781 38.570312 10.898438 38.554688 11.007812 C 38.460938 11.617188 38.371094 12.128906 38.296875 12.558594 C 38.109375 13.628906 38.015625 14.160156 38.191406 14.503906 C 38.363281 14.847656 38.851562 15.085938 39.828125 15.5625 C 40.210938 15.75 40.667969 15.972656 41.234375 16.265625 C 41.332031 16.316406 41.371094 16.433594 41.320312 16.53125 L 41.316406 16.539062 C 41.027344 17.117188 40.792969 17.558594 40.597656 17.925781 C 40.085938 18.886719 39.832031 19.367188 39.890625 19.746094 C 39.953125 20.125 40.34375 20.503906 41.121094 21.257812 C 41.433594 21.558594 41.808594 21.917969 42.242188 22.359375 C 42.320312 22.4375 42.320312 22.5625 42.242188 22.636719 C 41.808594 23.078125 41.433594 23.441406 41.121094 23.742188 C 40.34375 24.496094 39.949219 24.875 39.890625 25.253906 C 39.832031 25.632812 40.085938 26.113281 40.59375 27.070312 C 40.792969 27.445312 41.027344 27.886719 41.320312 28.46875 C 41.367188 28.566406 41.328125 28.683594 41.234375 28.730469 L 41.234375 28.734375 C 40.667969 29.023438 40.210938 29.25 39.828125 29.4375 C 38.851562 29.914062 38.363281 30.152344 38.1875 30.492188 C 38.015625 30.835938 38.109375 31.371094 38.296875 32.441406 C 38.371094 32.871094 38.460938 33.382812 38.554688 33.992188 C 38.570312 34.101562 38.496094 34.203125 38.386719 34.21875 L 38.378906 34.21875 C 37.765625 34.320312 37.261719 34.390625 36.835938 34.449219 C 35.761719 34.601562 35.222656 34.679688 34.949219 34.949219 C 34.679688 35.222656 34.601562 35.761719 34.453125 36.835938 C 34.390625 37.261719 34.320312 37.773438 34.21875 38.390625 C 34.199219 38.496094 34.101562 38.570312 33.992188 38.554688 C 33.382812 38.460938 32.871094 38.371094 32.441406 38.296875 C 31.371094 38.109375 30.835938 38.015625 30.496094 38.1875 C 30.152344 38.363281 29.914062 38.851562 29.4375 39.828125 C 29.25 40.210938 29.027344 40.667969 28.734375 41.234375 C 28.683594 41.332031 28.5625 41.367188 28.46875 41.320312 L 28.460938 41.3125 C 27.882812 41.027344 27.441406 40.792969 27.074219 40.59375 C 26.113281 40.085938 25.632812 39.832031 25.253906 39.890625 C 24.875 39.949219 24.496094 40.339844 23.742188 41.121094 C 23.441406 41.433594 23.078125 41.808594 22.636719 42.242188 C 22.5625 42.320312 22.4375 42.320312 22.363281 42.242188 C 21.921875 41.808594 21.558594 41.433594 21.257812 41.121094 C 20.503906 40.339844 20.125 39.949219 19.746094 39.890625 C 19.367188 39.832031 18.886719 40.085938 17.925781 40.59375 C 17.554688 40.792969 17.113281 41.027344 16.53125 41.320312 C 16.433594 41.367188 16.316406 41.328125 16.269531 41.234375 L 16.265625 41.234375 C 15.972656 40.667969 15.75 40.210938 15.5625 39.828125 C 15.085938 38.851562 14.847656 38.363281 14.507812 38.1875 C 14.164062 38.011719 13.628906 38.105469 12.558594 38.296875 C 12.128906 38.371094 11.617188 38.460938 11.007812 38.554688 C 10.898438 38.570312 10.796875 38.496094 10.78125 38.386719 L 10.78125 38.378906 C 10.679688 37.765625 10.609375 37.257812 10.550781 36.835938 C 10.398438 35.757812 10.320312 35.222656 10.050781 34.949219 L 10.046875 34.953125 C 9.777344 34.679688 9.238281 34.601562 8.164062 34.453125 C 7.738281 34.390625 7.226562 34.320312 6.609375 34.21875 C 6.503906 34.199219 6.429688 34.101562 6.445312 33.992188 C 6.539062 33.382812 6.628906 32.871094 6.703125 32.441406 C 6.890625 31.371094 6.984375 30.835938 6.808594 30.496094 C 6.636719 30.152344 6.148438 29.914062 5.171875 29.4375 C 4.789062 29.25 4.328125 29.027344 3.765625 28.734375 C 3.667969 28.683594 3.628906 28.5625 3.679688 28.46875 L 3.683594 28.457031 C 4.027344 27.773438 4.316406 27.25 4.546875 26.832031 C 4.996094 26.015625 5.222656 25.605469 5.171875 25.273438 C 5.117188 24.929688 4.746094 24.574219 3.992188 23.851562 C 3.65625 23.527344 3.246094 23.132812 2.757812 22.636719 C 2.679688 22.5625 2.679688 22.4375 2.757812 22.363281 C 3.191406 21.917969 3.566406 21.558594 3.878906 21.257812 C 4.65625 20.503906 5.046875 20.125 5.109375 19.746094 C 5.167969 19.367188 4.914062 18.886719 4.402344 17.925781 C 4.207031 17.554688 3.972656 17.113281 3.679688 16.53125 C 3.632812 16.433594 3.671875 16.316406 3.765625 16.265625 C 4.332031 15.972656 4.789062 15.75 5.171875 15.5625 C 6.148438 15.085938 6.636719 14.847656 6.8125 14.507812 C 6.984375 14.164062 6.890625 13.628906 6.703125 12.558594 C 6.628906 12.128906 6.539062 11.617188 6.445312 11.007812 C 6.429688 10.898438 6.503906 10.796875 6.613281 10.78125 L 6.621094 10.78125 C 7.234375 10.679688 7.738281 10.609375 8.164062 10.546875 C 9.238281 10.398438 9.777344 10.320312 10.050781 10.050781 L 10.046875 10.046875 C 10.320312 9.777344 10.398438 9.238281 10.546875 8.164062 C 10.609375 7.738281 10.679688 7.226562 10.78125 6.609375 C 10.800781 6.503906 10.898438 6.429688 11.007812 6.445312 C 11.617188 6.539062 12.128906 6.628906 12.558594 6.703125 C 13.628906 6.890625 14.164062 6.984375 14.503906 6.808594 C 14.847656 6.636719 15.085938 6.148438 15.5625 5.171875 C 15.75 4.789062 15.972656 4.332031 16.265625 3.765625 C 16.316406 3.667969 16.433594 3.628906 16.53125 3.679688 L 16.539062 3.683594 C 17.117188 3.972656 17.558594 4.207031 17.925781 4.402344 C 18.886719 4.914062 19.367188 5.167969 19.746094 5.109375 C 20.125 5.046875 20.503906 4.65625 21.257812 3.878906 C 21.558594 3.566406 21.917969 3.191406 22.363281 2.757812 C 22.4375 2.679688 22.5625 2.679688 22.636719 2.753906 Z M 23.457031 4.152344 C 23.191406 3.875 22.878906 3.550781 22.5 3.175781 C 22.121094 3.550781 21.808594 3.875 21.542969 4.148438 C 20.726562 4.996094 20.316406 5.417969 19.808594 5.5 C 19.296875 5.578125 18.777344 5.304688 17.742188 4.753906 C 17.394531 4.566406 16.984375 4.351562 16.527344 4.121094 C 16.289062 4.582031 16.089844 4.992188 15.917969 5.34375 C 15.402344 6.398438 15.148438 6.929688 14.6875 7.164062 C 14.226562 7.398438 13.648438 7.296875 12.492188 7.09375 C 12.113281 7.027344 11.667969 6.949219 11.140625 6.867188 C 11.054688 7.386719 10.992188 7.835938 10.941406 8.21875 C 10.777344 9.382812 10.695312 9.964844 10.328125 10.328125 C 9.960938 10.695312 9.378906 10.777344 8.21875 10.9375 C 7.835938 10.992188 7.386719 11.054688 6.863281 11.140625 C 6.945312 11.667969 7.023438 12.109375 7.09375 12.488281 C 7.296875 13.644531 7.398438 14.222656 7.164062 14.683594 C 6.929688 15.144531 6.398438 15.402344 5.34375 15.917969 C 4.992188 16.089844 4.582031 16.289062 4.121094 16.527344 C 4.351562 16.984375 4.566406 17.390625 4.753906 17.742188 C 5.304688 18.777344 5.578125 19.296875 5.496094 19.808594 C 5.417969 20.316406 4.992188 20.726562 4.148438 21.539062 C 3.875 21.808594 3.550781 22.121094 3.175781 22.5 C 3.601562 22.929688 3.964844 23.277344 4.265625 23.566406 C 5.082031 24.351562 5.484375 24.738281 5.5625 25.210938 C 5.632812 25.675781 5.382812 26.128906 4.894531 27.023438 C 4.679688 27.414062 4.414062 27.886719 4.121094 28.472656 C 4.582031 28.710938 4.992188 28.910156 5.34375 29.082031 C 6.398438 29.597656 6.929688 29.855469 7.164062 30.3125 C 7.398438 30.773438 7.296875 31.351562 7.09375 32.507812 C 7.027344 32.886719 6.949219 33.332031 6.867188 33.859375 C 7.386719 33.945312 7.835938 34.007812 8.21875 34.058594 C 9.382812 34.222656 9.964844 34.304688 10.328125 34.671875 C 10.691406 35.039062 10.773438 35.621094 10.9375 36.78125 C 10.992188 37.164062 11.054688 37.613281 11.140625 38.136719 C 11.667969 38.050781 12.109375 37.972656 12.488281 37.90625 C 13.644531 37.703125 14.222656 37.601562 14.683594 37.835938 C 15.144531 38.070312 15.402344 38.601562 15.917969 39.65625 C 16.089844 40.007812 16.289062 40.417969 16.527344 40.878906 C 16.984375 40.648438 17.390625 40.433594 17.742188 40.246094 C 18.777344 39.695312 19.292969 39.421875 19.804688 39.503906 C 20.316406 39.582031 20.726562 40.007812 21.539062 40.851562 C 21.808594 41.125 22.121094 41.449219 22.5 41.828125 C 22.878906 41.453125 23.191406 41.125 23.457031 40.851562 C 24.273438 40.007812 24.679688 39.582031 25.191406 39.503906 C 25.703125 39.421875 26.222656 39.695312 27.257812 40.246094 C 27.605469 40.433594 28.015625 40.648438 28.472656 40.878906 C 28.710938 40.417969 28.910156 40.007812 29.082031 39.65625 C 29.597656 38.601562 29.851562 38.070312 30.3125 37.835938 C 30.773438 37.601562 31.351562 37.703125 32.507812 37.90625 C 32.886719 37.972656 33.332031 38.050781 33.859375 38.136719 C 33.945312 37.613281 34.007812 37.164062 34.058594 36.78125 C 34.222656 35.617188 34.304688 35.035156 34.671875 34.671875 C 35.035156 34.308594 35.617188 34.222656 36.78125 34.0625 C 37.164062 34.007812 37.613281 33.945312 38.132812 33.859375 C 38.050781 33.332031 37.972656 32.890625 37.90625 32.511719 C 37.703125 31.355469 37.601562 30.777344 37.835938 30.316406 C 38.070312 29.855469 38.597656 29.597656 39.65625 29.082031 C 40.003906 28.910156 40.417969 28.710938 40.878906 28.472656 C 40.648438 28.015625 40.429688 27.609375 40.246094 27.257812 C 39.695312 26.222656 39.421875 25.707031 39.5 25.191406 C 39.582031 24.683594 40.003906 24.273438 40.847656 23.460938 C 41.125 23.191406 41.449219 22.878906 41.824219 22.5 C 41.449219 22.121094 41.125 21.808594 40.847656 21.542969 C 40.003906 20.726562 39.582031 20.320312 39.5 19.808594 C 39.421875 19.296875 39.695312 18.777344 40.246094 17.742188 C 40.429688 17.394531 40.648438 16.984375 40.878906 16.527344 C 40.417969 16.289062 40.003906 16.089844 39.65625 15.917969 C 38.597656 15.40625 38.070312 15.148438 37.835938 14.6875 C 37.601562 14.226562 37.703125 13.648438 37.90625 12.492188 C 37.972656 12.113281 38.050781 11.667969 38.132812 11.140625 C 37.613281 11.054688 37.164062 10.992188 36.78125 10.941406 C 35.617188 10.777344 35.035156 10.695312 34.671875 10.328125 C 34.304688 9.960938 34.222656 9.382812 34.058594 8.21875 C 34.007812 7.835938 33.941406 7.386719 33.859375 6.867188 C 33.332031 6.949219 32.886719 7.027344 32.507812 7.09375 C 31.351562 7.296875 30.773438 7.398438 30.3125 7.164062 C 29.851562 6.929688 29.59375 6.402344 29.082031 5.347656 C 28.910156 4.996094 28.710938 4.585938 28.472656 4.121094 C 28.015625 4.351562 27.605469 4.570312 27.257812 4.753906 C 26.222656 5.304688 25.703125 5.578125 25.191406 5.5 C 24.683594 5.417969 24.273438 4.996094 23.457031 4.152344 Z M 23.457031 4.152344 "
          fill-opacity="1" fill-rule="evenodd"/>
    <g clip-path="url(#b9a5bcb21a)">
        <path fill="#fbfbf5"
              d="M 18.246094 17.023438 C 18.179688 17.023438 18.125 16.96875 18.125 16.902344 C 18.125 16.835938 18.175781 16.785156 18.242188 16.785156 L 18.246094 16.785156 C 18.308594 16.785156 18.359375 16.835938 18.359375 16.902344 C 18.359375 16.96875 18.308594 17.023438 18.246094 17.023438 Z M 18.246094 17.023438 "
              fill-opacity="1" fill-rule="nonzero"/>
    </g>
    <path fill="#fbfbf5"
          d="M 19.765625 14.613281 C 19.699219 14.613281 19.644531 14.558594 19.644531 14.492188 C 19.644531 14.425781 19.699219 14.371094 19.761719 14.371094 L 19.765625 14.371094 C 19.828125 14.371094 19.882812 14.425781 19.882812 14.492188 C 19.882812 14.558594 19.828125 14.613281 19.765625 14.613281 Z M 19.765625 14.613281 "
          fill-opacity="1" fill-rule="nonzero"/>
    <path fill="#fbfbf5"
          d="M 20.699219 11.960938 C 20.636719 11.960938 20.582031 11.90625 20.582031 11.839844 C 20.582031 11.773438 20.632812 11.71875 20.699219 11.71875 C 20.765625 11.71875 20.816406 11.773438 20.816406 11.839844 C 20.816406 11.90625 20.765625 11.960938 20.699219 11.960938 Z M 20.699219 11.960938 "
          fill-opacity="1" fill-rule="nonzero"/>
    <path fill="#fbfbf5"
          d="M 24.910156 12.441406 C 24.84375 12.441406 24.792969 12.386719 24.792969 12.320312 C 24.792969 12.253906 24.84375 12.203125 24.90625 12.203125 L 24.910156 12.203125 C 24.972656 12.203125 25.027344 12.253906 25.027344 12.320312 C 25.027344 12.386719 24.972656 12.441406 24.910156 12.441406 Z M 24.910156 12.441406 "
          fill-opacity="1" fill-rule="nonzero"/>
    <path fill="#fbfbf5"
          d="M 22.804688 14.855469 C 22.742188 14.855469 22.6875 14.800781 22.6875 14.734375 C 22.6875 14.667969 22.738281 14.613281 22.800781 14.613281 L 22.804688 14.613281 C 22.871094 14.613281 22.921875 14.667969 22.921875 14.734375 C 22.921875 14.800781 22.871094 14.855469 22.804688 14.855469 Z M 22.804688 14.855469 "
          fill-opacity="1" fill-rule="nonzero"/>
    <g clip-path="url(#3e1219e308)">
        <path fill="#fbfbf5"
              d="M 18.945312 17.023438 C 18.882812 17.023438 18.828125 16.96875 18.828125 16.902344 C 18.828125 16.835938 18.878906 16.785156 18.945312 16.785156 C 19.011719 16.785156 19.0625 16.835938 19.0625 16.902344 C 19.0625 16.96875 19.011719 17.023438 18.945312 17.023438 Z M 18.945312 17.023438 "
              fill-opacity="1" fill-rule="nonzero"/>
    </g>
    <g clip-path="url(#f808e29cc4)">
        <path fill="#fbfbf5"
              d="M 19.648438 17.023438 C 19.582031 17.023438 19.53125 16.96875 19.53125 16.902344 C 19.53125 16.835938 19.582031 16.785156 19.644531 16.785156 L 19.648438 16.785156 C 19.710938 16.785156 19.765625 16.835938 19.765625 16.902344 C 19.765625 16.96875 19.710938 17.023438 19.648438 17.023438 Z M 19.648438 17.023438 "
              fill-opacity="1" fill-rule="nonzero"/>
    </g>
    <g clip-path="url(#4f88fc02a2)">
        <path fill="#fbfbf5"
              d="M 20.347656 17.023438 C 20.285156 17.023438 20.230469 16.96875 20.230469 16.902344 C 20.230469 16.835938 20.28125 16.785156 20.347656 16.785156 C 20.414062 16.785156 20.464844 16.835938 20.464844 16.902344 C 20.464844 16.96875 20.414062 17.023438 20.347656 17.023438 Z M 20.347656 17.023438 "
              fill-opacity="1" fill-rule="nonzero"/>
    </g>
    <g clip-path="url(#905421d9c6)">
        <path fill="#fbfbf5"
              d="M 21.050781 17.023438 C 20.984375 17.023438 20.933594 16.96875 20.933594 16.902344 C 20.933594 16.835938 20.984375 16.785156 21.046875 16.785156 L 21.050781 16.785156 C 21.117188 16.785156 21.167969 16.835938 21.167969 16.902344 C 21.167969 16.96875 21.117188 17.023438 21.050781 17.023438 Z M 21.050781 17.023438 "
              fill-opacity="1" fill-rule="nonzero"/>
    </g>
    <g clip-path="url(#297888710b)">
        <path fill="#fbfbf5"
              d="M 21.753906 17.023438 C 21.6875 17.023438 21.632812 16.96875 21.632812 16.902344 C 21.632812 16.835938 21.683594 16.785156 21.75 16.785156 L 21.753906 16.785156 C 21.816406 16.785156 21.871094 16.835938 21.871094 16.902344 C 21.871094 16.96875 21.816406 17.023438 21.753906 17.023438 Z M 21.753906 17.023438 "
              fill-opacity="1" fill-rule="nonzero"/>
    </g>
    <g clip-path="url(#897fd36d1b)">
        <path fill="#fbfbf5"
              d="M 22.453125 17.023438 C 22.390625 17.023438 22.335938 16.96875 22.335938 16.902344 C 22.335938 16.835938 22.386719 16.785156 22.453125 16.785156 C 22.519531 16.785156 22.570312 16.835938 22.570312 16.902344 C 22.570312 16.96875 22.519531 17.023438 22.453125 17.023438 Z M 22.453125 17.023438 "
              fill-opacity="1" fill-rule="nonzero"/>
    </g>
    <g clip-path="url(#fd75839564)">
        <path fill="#fbfbf5"
              d="M 23.15625 17.023438 C 23.089844 17.023438 23.039062 16.96875 23.039062 16.902344 C 23.039062 16.835938 23.089844 16.785156 23.152344 16.785156 L 23.15625 16.785156 C 23.21875 16.785156 23.273438 16.835938 23.273438 16.902344 C 23.273438 16.96875 23.21875 17.023438 23.15625 17.023438 Z M 23.15625 17.023438 "
              fill-opacity="1" fill-rule="nonzero"/>
        <path fill="#fbfbf5"
              d="M 23.855469 17.023438 C 23.792969 17.023438 23.738281 16.96875 23.738281 16.902344 C 23.738281 16.835938 23.789062 16.785156 23.855469 16.785156 C 23.921875 16.785156 23.972656 16.835938 23.972656 16.902344 C 23.972656 16.96875 23.921875 17.023438 23.855469 17.023438 Z M 23.855469 17.023438 "
              fill-opacity="1" fill-rule="nonzero"/>
    </g>
    <g clip-path="url(#fae885bee5)">
        <path fill="#fbfbf5"
              d="M 14.847656 11.960938 C 14.78125 11.960938 14.730469 11.90625 14.730469 11.839844 C 14.730469 11.375 15.097656 10.996094 15.546875 10.996094 C 15.613281 10.996094 15.664062 11.050781 15.664062 11.117188 C 15.664062 11.183594 15.613281 11.238281 15.546875 11.238281 C 15.226562 11.238281 14.964844 11.507812 14.964844 11.839844 C 14.964844 11.90625 14.910156 11.960938 14.847656 11.960938 Z M 14.847656 11.960938 "
              fill-opacity="1" fill-rule="nonzero"/>
    </g>
    <g clip-path="url(#70073ef3f3)">
        <path fill="#fbfbf5"
              d="M 29.578125 11.960938 C 29.515625 11.960938 29.464844 11.90625 29.464844 11.839844 C 29.464844 11.507812 29.199219 11.238281 28.878906 11.238281 C 28.8125 11.238281 28.761719 11.183594 28.761719 11.117188 C 28.761719 11.050781 28.8125 10.996094 28.878906 10.996094 C 29.328125 10.996094 29.695312 11.375 29.695312 11.839844 C 29.695312 11.90625 29.644531 11.960938 29.578125 11.960938 Z M 29.578125 11.960938 "
              fill-opacity="1" fill-rule="nonzero"/>
    </g>
    <g clip-path="url(#fc55bb10d7)">
        <path fill="#fbfbf5"
              d="M 28.878906 17.988281 C 28.8125 17.988281 28.761719 17.933594 28.761719 17.867188 C 28.761719 17.800781 28.8125 17.746094 28.878906 17.746094 C 29.199219 17.746094 29.464844 17.476562 29.464844 17.144531 C 29.464844 17.078125 29.515625 17.023438 29.578125 17.023438 C 29.644531 17.023438 29.695312 17.078125 29.695312 17.144531 C 29.695312 17.609375 29.328125 17.988281 28.878906 17.988281 Z M 28.878906 17.988281 "
              fill-opacity="1" fill-rule="nonzero"/>
    </g>
    <g clip-path="url(#c8bb108345)">
        <path fill="#fbfbf5"
              d="M 15.546875 17.988281 C 15.097656 17.988281 14.730469 17.609375 14.730469 17.144531 C 14.730469 17.078125 14.78125 17.023438 14.847656 17.023438 C 14.910156 17.023438 14.964844 17.078125 14.964844 17.144531 C 14.964844 17.476562 15.226562 17.746094 15.546875 17.746094 C 15.613281 17.746094 15.664062 17.800781 15.664062 17.867188 C 15.664062 17.933594 15.613281 17.988281 15.546875 17.988281 Z M 15.546875 17.988281 "
              fill-opacity="1" fill-rule="nonzero"/>
    </g>
    <g clip-path="url(#28fcbe4e68)">
        <path fill="#fbfbf5"
              d="M 15.546875 14.613281 C 15.484375 14.613281 15.429688 14.558594 15.429688 14.492188 C 15.429688 14.160156 15.167969 13.890625 14.847656 13.890625 C 14.78125 13.890625 14.730469 13.835938 14.730469 13.769531 C 14.730469 13.703125 14.78125 13.648438 14.847656 13.648438 C 15.296875 13.648438 15.664062 14.027344 15.664062 14.492188 C 15.664062 14.558594 15.613281 14.613281 15.546875 14.613281 Z M 15.546875 14.613281 "
              fill-opacity="1" fill-rule="nonzero"/>
    </g>
    <g clip-path="url(#77505c1013)">
        <path fill="#fbfbf5"
              d="M 14.847656 15.335938 C 14.78125 15.335938 14.730469 15.28125 14.730469 15.214844 C 14.730469 15.148438 14.78125 15.09375 14.847656 15.09375 C 15.167969 15.09375 15.429688 14.824219 15.429688 14.492188 C 15.429688 14.425781 15.484375 14.371094 15.546875 14.371094 C 15.613281 14.371094 15.664062 14.425781 15.664062 14.492188 C 15.664062 14.957031 15.296875 15.335938 14.847656 15.335938 Z M 14.847656 15.335938 "
              fill-opacity="1" fill-rule="nonzero"/>
    </g>
    <path fill="#fbfbf5"
          d="M 28.878906 11.238281 L 15.546875 11.238281 C 15.484375 11.238281 15.429688 11.183594 15.429688 11.117188 C 15.429688 11.050781 15.484375 10.996094 15.546875 10.996094 L 28.878906 10.996094 C 28.941406 10.996094 28.996094 11.050781 28.996094 11.117188 C 28.996094 11.183594 28.941406 11.238281 28.878906 11.238281 Z M 28.878906 11.238281 "
          fill-opacity="1" fill-rule="nonzero"/>
    <g clip-path="url(#d34ec7ce27)">
        <path fill="#fbfbf5"
              d="M 28.878906 17.988281 L 15.546875 17.988281 C 15.484375 17.988281 15.429688 17.933594 15.429688 17.867188 C 15.429688 17.800781 15.484375 17.746094 15.546875 17.746094 L 28.878906 17.746094 C 28.941406 17.746094 28.996094 17.800781 28.996094 17.867188 C 28.996094 17.933594 28.941406 17.988281 28.878906 17.988281 Z M 28.878906 17.988281 "
              fill-opacity="1" fill-rule="nonzero"/>
    </g>
    <g clip-path="url(#5531463be8)">
        <path fill="#fbfbf5"
              d="M 14.847656 13.890625 C 14.78125 13.890625 14.730469 13.835938 14.730469 13.769531 L 14.730469 11.839844 C 14.730469 11.773438 14.78125 11.71875 14.847656 11.71875 C 14.910156 11.71875 14.964844 11.773438 14.964844 11.839844 L 14.964844 13.769531 C 14.964844 13.835938 14.910156 13.890625 14.847656 13.890625 Z M 14.847656 13.890625 "
              fill-opacity="1" fill-rule="nonzero"/>
    </g>
    <g clip-path="url(#def4cf27d8)">
        <path fill="#fbfbf5"
              d="M 14.847656 17.265625 C 14.78125 17.265625 14.730469 17.210938 14.730469 17.144531 L 14.730469 15.214844 C 14.730469 15.148438 14.78125 15.09375 14.847656 15.09375 C 14.910156 15.09375 14.964844 15.148438 14.964844 15.214844 L 14.964844 17.144531 C 14.964844 17.210938 14.910156 17.265625 14.847656 17.265625 Z M 14.847656 17.265625 "
              fill-opacity="1" fill-rule="nonzero"/>
    </g>
    <g clip-path="url(#79bd734d6d)">
        <path fill="#fbfbf5"
              d="M 29.582031 15.335938 C 29.128906 15.335938 28.761719 14.957031 28.761719 14.492188 C 28.761719 14.425781 28.8125 14.371094 28.878906 14.371094 C 28.941406 14.371094 28.996094 14.425781 28.996094 14.492188 C 28.996094 14.824219 29.257812 15.09375 29.582031 15.09375 C 29.644531 15.09375 29.695312 15.148438 29.695312 15.214844 C 29.695312 15.28125 29.644531 15.335938 29.582031 15.335938 Z M 29.582031 15.335938 "
              fill-opacity="1" fill-rule="nonzero"/>
    </g>
    <g clip-path="url(#f4b1c77919)">
        <path fill="#fbfbf5"
              d="M 28.878906 14.613281 C 28.8125 14.613281 28.761719 14.558594 28.761719 14.492188 C 28.761719 14.027344 29.128906 13.648438 29.582031 13.648438 C 29.644531 13.648438 29.695312 13.703125 29.695312 13.769531 C 29.695312 13.835938 29.644531 13.890625 29.582031 13.890625 C 29.257812 13.890625 28.996094 14.160156 28.996094 14.492188 C 28.996094 14.558594 28.941406 14.613281 28.878906 14.613281 Z M 28.878906 14.613281 "
              fill-opacity="1" fill-rule="nonzero"/>
    </g>
    <g clip-path="url(#24a190a4c8)">
        <path fill="#fbfbf5"
              d="M 29.582031 17.265625 C 29.515625 17.265625 29.464844 17.210938 29.464844 17.144531 L 29.464844 15.214844 C 29.464844 15.148438 29.515625 15.09375 29.582031 15.09375 C 29.644531 15.09375 29.695312 15.148438 29.695312 15.214844 L 29.695312 17.144531 C 29.695312 17.210938 29.644531 17.265625 29.582031 17.265625 Z M 29.582031 17.265625 "
              fill-opacity="1" fill-rule="nonzero"/>
    </g>
    <g clip-path="url(#5f96d529ed)">
        <path fill="#fbfbf5"
              d="M 29.582031 13.890625 C 29.515625 13.890625 29.464844 13.835938 29.464844 13.769531 L 29.464844 11.839844 C 29.464844 11.773438 29.515625 11.71875 29.582031 11.71875 C 29.644531 11.71875 29.695312 11.773438 29.695312 11.839844 L 29.695312 13.769531 C 29.695312 13.835938 29.644531 13.890625 29.582031 13.890625 Z M 29.582031 13.890625 "
              fill-opacity="1" fill-rule="nonzero"/>
    </g>
    <path fill="#fbfbf5"
          d="M 26.539062 12.082031 C 26.476562 12.082031 26.421875 12.027344 26.421875 11.960938 L 26.421875 11.597656 C 26.421875 11.53125 26.476562 11.476562 26.539062 11.476562 C 26.605469 11.476562 26.65625 11.53125 26.65625 11.597656 L 26.65625 11.960938 C 26.65625 12.027344 26.605469 12.082031 26.539062 12.082031 Z M 26.539062 12.082031 "
          fill-opacity="1" fill-rule="nonzero"/>
    <path fill="#fbfbf5"
          d="M 26.539062 16.421875 C 26.476562 16.421875 26.421875 16.367188 26.421875 16.300781 L 26.421875 15.578125 C 26.421875 15.511719 26.476562 15.457031 26.539062 15.457031 C 26.605469 15.457031 26.65625 15.511719 26.65625 15.578125 L 26.65625 16.300781 C 26.65625 16.367188 26.605469 16.421875 26.539062 16.421875 Z M 26.539062 14.972656 C 26.476562 14.972656 26.421875 14.921875 26.421875 14.855469 L 26.421875 14.128906 C 26.421875 14.0625 26.476562 14.011719 26.539062 14.011719 C 26.605469 14.011719 26.65625 14.0625 26.65625 14.128906 L 26.65625 14.855469 C 26.65625 14.921875 26.605469 14.972656 26.539062 14.972656 Z M 26.539062 13.527344 C 26.476562 13.527344 26.421875 13.472656 26.421875 13.40625 L 26.421875 12.683594 C 26.421875 12.617188 26.476562 12.5625 26.539062 12.5625 C 26.605469 12.5625 26.65625 12.617188 26.65625 12.683594 L 26.65625 13.40625 C 26.65625 13.472656 26.605469 13.527344 26.539062 13.527344 Z M 26.539062 13.527344 "
          fill-opacity="1" fill-rule="nonzero"/>
    <g clip-path="url(#9991c36b4a)">
        <path fill="#fbfbf5"
              d="M 26.539062 17.507812 C 26.476562 17.507812 26.421875 17.453125 26.421875 17.386719 L 26.421875 17.023438 C 26.421875 16.957031 26.476562 16.902344 26.539062 16.902344 C 26.605469 16.902344 26.65625 16.957031 26.65625 17.023438 L 26.65625 17.386719 C 26.65625 17.453125 26.605469 17.507812 26.539062 17.507812 Z M 26.539062 17.507812 "
              fill-opacity="1" fill-rule="nonzero"/>
    </g>
    <g clip-path="url(#6272703ece)">
        <path fill="#fbfbf5"
              d="M 27.476562 17.265625 C 27.410156 17.265625 27.359375 17.210938 27.359375 17.144531 L 27.359375 11.839844 C 27.359375 11.773438 27.410156 11.71875 27.476562 11.71875 C 27.539062 11.71875 27.59375 11.773438 27.59375 11.839844 L 27.59375 17.144531 C 27.59375 17.210938 27.539062 17.265625 27.476562 17.265625 Z M 27.476562 17.265625 "
              fill-opacity="1" fill-rule="nonzero"/>
    </g>
    <path fill="#fbfbf5"
          d="M 27.941406 16.058594 C 27.878906 16.058594 27.824219 16.007812 27.824219 15.9375 L 27.824219 13.046875 C 27.824219 12.980469 27.878906 12.925781 27.941406 12.925781 C 28.007812 12.925781 28.058594 12.980469 28.058594 13.046875 L 28.058594 15.9375 C 28.058594 16.007812 28.007812 16.058594 27.941406 16.058594 Z M 27.941406 16.058594 "
          fill-opacity="1" fill-rule="nonzero"/>
    <path fill="#fbfbf5"
          d="M 18.121094 14.128906 C 18.054688 14.128906 18.003906 14.078125 18.003906 14.011719 L 18.003906 12.5625 C 18.003906 12.496094 18.054688 12.441406 18.121094 12.441406 C 18.183594 12.441406 18.238281 12.496094 18.238281 12.5625 L 18.238281 14.011719 C 18.238281 14.078125 18.183594 14.128906 18.121094 14.128906 Z M 18.121094 14.128906 "
          fill-opacity="1" fill-rule="nonzero"/>
    <path fill="#fbfbf5"
          d="M 18.589844 12.683594 L 17.652344 12.683594 C 17.589844 12.683594 17.535156 12.628906 17.535156 12.5625 C 17.535156 12.496094 17.589844 12.441406 17.652344 12.441406 L 18.589844 12.441406 C 18.652344 12.441406 18.707031 12.496094 18.707031 12.5625 C 18.707031 12.628906 18.652344 12.683594 18.589844 12.683594 Z M 18.589844 12.683594 "
          fill-opacity="1" fill-rule="nonzero"/>
    <path fill="#fbfbf5"
          d="M 23.851562 14.128906 C 23.785156 14.128906 23.734375 14.078125 23.734375 14.011719 L 23.734375 12.5625 C 23.734375 12.496094 23.785156 12.441406 23.851562 12.441406 C 23.914062 12.441406 23.96875 12.496094 23.96875 12.5625 L 23.96875 14.011719 C 23.96875 14.078125 23.914062 14.128906 23.851562 14.128906 Z M 23.851562 14.128906 "
          fill-opacity="1" fill-rule="nonzero"/>
    <path fill="#fbfbf5"
          d="M 24.316406 12.683594 L 23.382812 12.683594 C 23.316406 12.683594 23.265625 12.628906 23.265625 12.5625 C 23.265625 12.496094 23.316406 12.441406 23.382812 12.441406 L 24.316406 12.441406 C 24.382812 12.441406 24.433594 12.496094 24.433594 12.5625 C 24.433594 12.628906 24.382812 12.683594 24.316406 12.683594 Z M 24.316406 12.683594 "
          fill-opacity="1" fill-rule="nonzero"/>
    <path fill="#fbfbf5"
          d="M 19.054688 14.128906 C 18.992188 14.128906 18.9375 14.078125 18.9375 14.011719 L 18.9375 12.5625 C 18.9375 12.496094 18.992188 12.441406 19.054688 12.441406 C 19.121094 12.441406 19.171875 12.496094 19.171875 12.5625 L 19.171875 14.011719 C 19.171875 14.078125 19.121094 14.128906 19.054688 14.128906 Z M 19.054688 14.128906 "
          fill-opacity="1" fill-rule="nonzero"/>
    <path fill="#fbfbf5"
          d="M 21.042969 14.128906 C 20.980469 14.128906 20.925781 14.078125 20.925781 14.011719 L 20.925781 12.5625 C 20.925781 12.496094 20.980469 12.441406 21.042969 12.441406 C 21.109375 12.441406 21.160156 12.496094 21.160156 12.5625 L 21.160156 14.011719 C 21.160156 14.078125 21.109375 14.128906 21.042969 14.128906 Z M 21.042969 14.128906 "
          fill-opacity="1" fill-rule="nonzero"/>
    <path fill="#fbfbf5"
          d="M 21.042969 13.648438 C 21.019531 13.648438 20.996094 13.640625 20.972656 13.625 C 20.921875 13.585938 20.910156 13.507812 20.949219 13.457031 L 21.652344 12.492188 C 21.691406 12.4375 21.765625 12.425781 21.816406 12.464844 C 21.867188 12.507812 21.878906 12.582031 21.839844 12.636719 L 21.136719 13.601562 C 21.113281 13.632812 21.078125 13.648438 21.042969 13.648438 Z M 21.042969 13.648438 "
          fill-opacity="1" fill-rule="nonzero"/>
    <path fill="#fbfbf5"
          d="M 21.746094 14.128906 C 21.707031 14.128906 21.667969 14.109375 21.644531 14.070312 L 21.175781 13.269531 C 21.144531 13.210938 21.164062 13.136719 21.21875 13.101562 C 21.273438 13.070312 21.34375 13.085938 21.378906 13.144531 L 21.84375 13.949219 C 21.878906 14.003906 21.859375 14.078125 21.804688 14.113281 C 21.785156 14.125 21.765625 14.128906 21.746094 14.128906 Z M 21.746094 14.128906 "
          fill-opacity="1" fill-rule="nonzero"/>
    <path fill="#fbfbf5"
          d="M 20.460938 13.046875 C 20.394531 13.046875 20.34375 12.992188 20.34375 12.925781 C 20.34375 12.792969 20.238281 12.683594 20.109375 12.683594 C 19.980469 12.683594 19.875 12.792969 19.875 12.925781 C 19.875 12.992188 19.820312 13.046875 19.757812 13.046875 C 19.691406 13.046875 19.640625 12.992188 19.640625 12.925781 C 19.640625 12.660156 19.851562 12.441406 20.109375 12.441406 C 20.367188 12.441406 20.574219 12.660156 20.574219 12.925781 C 20.574219 12.992188 20.523438 13.046875 20.460938 13.046875 Z M 20.460938 13.046875 "
          fill-opacity="1" fill-rule="nonzero"/>
    <path fill="#fbfbf5"
          d="M 20.109375 14.128906 C 19.851562 14.128906 19.640625 13.914062 19.640625 13.648438 C 19.640625 13.582031 19.691406 13.527344 19.757812 13.527344 C 19.820312 13.527344 19.875 13.582031 19.875 13.648438 C 19.875 13.78125 19.980469 13.890625 20.109375 13.890625 C 20.238281 13.890625 20.34375 13.78125 20.34375 13.648438 C 20.34375 13.582031 20.394531 13.527344 20.460938 13.527344 C 20.523438 13.527344 20.574219 13.582031 20.574219 13.648438 C 20.574219 13.914062 20.367188 14.128906 20.109375 14.128906 Z M 20.109375 14.128906 "
          fill-opacity="1" fill-rule="nonzero"/>
    <path fill="#fbfbf5"
          d="M 19.757812 13.769531 C 19.691406 13.769531 19.640625 13.714844 19.640625 13.648438 L 19.640625 12.925781 C 19.640625 12.859375 19.691406 12.804688 19.757812 12.804688 C 19.820312 12.804688 19.875 12.859375 19.875 12.925781 L 19.875 13.648438 C 19.875 13.714844 19.820312 13.769531 19.757812 13.769531 Z M 19.757812 13.769531 "
          fill-opacity="1" fill-rule="nonzero"/>
    <path fill="#fbfbf5"
          d="M 22.332031 14.128906 C 22.265625 14.128906 22.214844 14.078125 22.214844 14.011719 L 22.214844 12.5625 C 22.214844 12.496094 22.265625 12.441406 22.332031 12.441406 C 22.394531 12.441406 22.445312 12.496094 22.445312 12.5625 L 22.445312 14.011719 C 22.445312 14.078125 22.394531 14.128906 22.332031 14.128906 Z M 22.332031 14.128906 "
          fill-opacity="1" fill-rule="nonzero"/>
    <path fill="#fbfbf5"
          d="M 23.03125 14.128906 L 22.332031 14.128906 C 22.265625 14.128906 22.214844 14.078125 22.214844 14.011719 C 22.214844 13.941406 22.265625 13.890625 22.332031 13.890625 L 23.03125 13.890625 C 23.097656 13.890625 23.148438 13.941406 23.148438 14.011719 C 23.148438 14.078125 23.097656 14.128906 23.03125 14.128906 Z M 23.03125 14.128906 "
          fill-opacity="1" fill-rule="nonzero"/>
    <path fill="#fbfbf5"
          d="M 23.03125 12.683594 L 22.332031 12.683594 C 22.265625 12.683594 22.214844 12.628906 22.214844 12.5625 C 22.214844 12.496094 22.265625 12.441406 22.332031 12.441406 L 23.03125 12.441406 C 23.097656 12.441406 23.148438 12.496094 23.148438 12.5625 C 23.148438 12.628906 23.097656 12.683594 23.03125 12.683594 Z M 23.03125 12.683594 "
          fill-opacity="1" fill-rule="nonzero"/>
    <path fill="#fbfbf5"
          d="M 22.796875 13.40625 L 22.332031 13.40625 C 22.265625 13.40625 22.214844 13.351562 22.214844 13.285156 C 22.214844 13.21875 22.265625 13.164062 22.332031 13.164062 L 22.796875 13.164062 C 22.863281 13.164062 22.914062 13.21875 22.914062 13.285156 C 22.914062 13.351562 22.863281 13.40625 22.796875 13.40625 Z M 22.796875 13.40625 "
          fill-opacity="1" fill-rule="nonzero"/>
    <path fill="#fbfbf5"
          d="M 23.96875 15.578125 L 18.121094 15.578125 C 18.054688 15.578125 18.003906 15.523438 18.003906 15.457031 C 18.003906 15.390625 18.054688 15.335938 18.121094 15.335938 L 23.96875 15.335938 C 24.03125 15.335938 24.085938 15.390625 24.085938 15.457031 C 24.085938 15.523438 24.03125 15.578125 23.96875 15.578125 Z M 23.96875 15.578125 "
          fill-opacity="1" fill-rule="nonzero"/>
    <path fill="#fbfbf5"
          d="M 22.332031 16.058594 L 19.757812 16.058594 C 19.691406 16.058594 19.640625 16.007812 19.640625 15.9375 C 19.640625 15.871094 19.691406 15.820312 19.757812 15.820312 L 22.332031 15.820312 C 22.394531 15.820312 22.445312 15.871094 22.445312 15.9375 C 22.445312 16.007812 22.394531 16.058594 22.332031 16.058594 Z M 22.332031 16.058594 "
          fill-opacity="1" fill-rule="nonzero"/>
    <path fill="#fbfbf5"
          d="M 24.902344 14.371094 C 24.839844 14.371094 24.785156 14.316406 24.785156 14.25 L 24.785156 13.769531 C 24.785156 13.703125 24.839844 13.648438 24.902344 13.648438 C 24.96875 13.648438 25.019531 13.703125 25.019531 13.769531 L 25.019531 14.25 C 25.019531 14.316406 24.96875 14.371094 24.902344 14.371094 Z M 24.902344 14.371094 "
          fill-opacity="1" fill-rule="nonzero"/>
    <path fill="#fbfbf5"
          d="M 25.136719 14.128906 L 24.667969 14.128906 C 24.605469 14.128906 24.550781 14.078125 24.550781 14.011719 C 24.550781 13.941406 24.605469 13.890625 24.667969 13.890625 L 25.136719 13.890625 C 25.203125 13.890625 25.253906 13.941406 25.253906 14.011719 C 25.253906 14.078125 25.203125 14.128906 25.136719 14.128906 Z M 25.136719 14.128906 "
          fill-opacity="1" fill-rule="nonzero"/>
    <path fill="#fbfbf5"
          d="M 16.71875 13.164062 C 16.652344 13.164062 16.601562 13.113281 16.601562 13.046875 L 16.601562 12.5625 C 16.601562 12.496094 16.652344 12.441406 16.71875 12.441406 C 16.78125 12.441406 16.835938 12.496094 16.835938 12.5625 L 16.835938 13.046875 C 16.835938 13.113281 16.78125 13.164062 16.71875 13.164062 Z M 16.71875 13.164062 "
          fill-opacity="1" fill-rule="nonzero"/>
    <path fill="#fbfbf5"
          d="M 16.949219 12.925781 L 16.484375 12.925781 C 16.417969 12.925781 16.367188 12.871094 16.367188 12.804688 C 16.367188 12.738281 16.417969 12.683594 16.484375 12.683594 L 16.949219 12.683594 C 17.015625 12.683594 17.066406 12.738281 17.066406 12.804688 C 17.066406 12.871094 17.015625 12.925781 16.949219 12.925781 Z M 16.949219 12.925781 "
          fill-opacity="1" fill-rule="nonzero"/>
    <path fill="#fbfbf5"
          d="M 23.730469 9.738281 C 23.664062 9.738281 23.613281 9.683594 23.613281 9.617188 C 23.613281 9.550781 23.664062 9.496094 23.726562 9.496094 L 23.730469 9.496094 C 23.792969 9.496094 23.847656 9.550781 23.847656 9.617188 C 23.847656 9.683594 23.792969 9.738281 23.730469 9.738281 Z M 23.730469 9.738281 "
          fill-opacity="1" fill-rule="nonzero"/>
    <g clip-path="url(#3b41503270)">
        <path fill="#fbfbf5"
              d="M 27.921875 7.554688 C 27.875 7.554688 27.828125 7.527344 27.8125 7.480469 C 27.695312 7.167969 27.355469 7.011719 27.054688 7.132812 C 26.996094 7.15625 26.925781 7.125 26.902344 7.0625 C 26.882812 7 26.910156 6.929688 26.972656 6.90625 C 27.394531 6.742188 27.867188 6.957031 28.027344 7.390625 C 28.050781 7.453125 28.023438 7.523438 27.960938 7.546875 C 27.949219 7.554688 27.933594 7.554688 27.921875 7.554688 Z M 27.921875 7.554688 "
              fill-opacity="1" fill-rule="nonzero"/>
    </g>
    <g clip-path="url(#527c7454cd)">
        <path fill="#fbfbf5"
              d="M 17.898438 10.753906 C 17.851562 10.753906 17.808594 10.726562 17.789062 10.675781 C 17.765625 10.613281 17.796875 10.546875 17.855469 10.519531 L 26.972656 6.90625 C 27.03125 6.882812 27.097656 6.914062 27.121094 6.976562 C 27.144531 7.039062 27.117188 7.109375 27.054688 7.132812 L 17.941406 10.746094 C 17.925781 10.75 17.914062 10.753906 17.898438 10.753906 Z M 17.898438 10.753906 "
              fill-opacity="1" fill-rule="nonzero"/>
    </g>
    <g clip-path="url(#ba818e1437)">
        <path fill="#fbfbf5"
              d="M 28.84375 10.753906 C 28.515625 10.753906 28.203125 10.550781 28.078125 10.214844 C 28.054688 10.152344 28.085938 10.082031 28.148438 10.058594 C 28.207031 10.035156 28.273438 10.066406 28.296875 10.128906 C 28.414062 10.4375 28.753906 10.59375 29.054688 10.472656 C 29.113281 10.449219 29.179688 10.480469 29.203125 10.542969 C 29.226562 10.605469 29.199219 10.675781 29.136719 10.699219 C 29.039062 10.738281 28.941406 10.753906 28.84375 10.753906 Z M 28.84375 10.753906 "
              fill-opacity="1" fill-rule="nonzero"/>
    </g>
    <path fill="#fbfbf5"
          d="M 28.1875 10.292969 C 28.140625 10.292969 28.097656 10.261719 28.078125 10.214844 C 27.917969 9.78125 28.128906 9.289062 28.550781 9.125 C 28.609375 9.101562 28.675781 9.128906 28.699219 9.191406 C 28.722656 9.253906 28.695312 9.324219 28.632812 9.347656 C 28.332031 9.46875 28.183594 9.816406 28.296875 10.128906 C 28.320312 10.191406 28.289062 10.257812 28.230469 10.285156 C 28.214844 10.289062 28.203125 10.292969 28.1875 10.292969 Z M 28.1875 10.292969 "
          fill-opacity="1" fill-rule="nonzero"/>
    <path fill="#fbfbf5"
          d="M 28.589844 9.355469 C 28.542969 9.355469 28.5 9.328125 28.484375 9.28125 L 27.8125 7.480469 C 27.789062 7.417969 27.816406 7.347656 27.878906 7.324219 C 27.9375 7.300781 28.007812 7.328125 28.03125 7.390625 L 28.699219 9.191406 C 28.722656 9.253906 28.695312 9.324219 28.632812 9.347656 C 28.621094 9.355469 28.605469 9.355469 28.589844 9.355469 Z M 28.589844 9.355469 "
          fill-opacity="1" fill-rule="nonzero"/>
    <path fill="#fbfbf5"
          d="M 25.125 8.792969 C 25.078125 8.792969 25.03125 8.765625 25.015625 8.714844 L 24.890625 8.378906 C 24.867188 8.316406 24.894531 8.246094 24.957031 8.222656 C 25.015625 8.199219 25.085938 8.230469 25.109375 8.292969 L 25.234375 8.628906 C 25.257812 8.691406 25.226562 8.761719 25.167969 8.785156 C 25.152344 8.792969 25.136719 8.792969 25.125 8.792969 Z M 25.125 8.792969 "
          fill-opacity="1" fill-rule="nonzero"/>
    <path fill="#fbfbf5"
          d="M 25.527344 9.875 C 25.480469 9.875 25.4375 9.847656 25.417969 9.796875 L 25.21875 9.257812 C 25.195312 9.195312 25.222656 9.125 25.285156 9.101562 C 25.34375 9.078125 25.410156 9.109375 25.433594 9.171875 L 25.636719 9.710938 C 25.660156 9.773438 25.628906 9.84375 25.570312 9.867188 C 25.554688 9.875 25.542969 9.875 25.527344 9.875 Z M 25.527344 9.875 "
          fill-opacity="1" fill-rule="nonzero"/>
    <path fill="#fbfbf5"
          d="M 25.855469 10.753906 C 25.808594 10.753906 25.765625 10.726562 25.746094 10.675781 L 25.621094 10.339844 C 25.597656 10.277344 25.628906 10.207031 25.6875 10.183594 C 25.75 10.160156 25.816406 10.191406 25.839844 10.253906 L 25.964844 10.589844 C 25.988281 10.652344 25.957031 10.722656 25.898438 10.746094 C 25.882812 10.753906 25.871094 10.753906 25.855469 10.753906 Z M 25.855469 10.753906 "
          fill-opacity="1" fill-rule="nonzero"/>
    <path fill="#fbfbf5"
          d="M 26.859375 10.753906 C 26.8125 10.753906 26.765625 10.722656 26.75 10.675781 L 25.847656 8.257812 C 25.824219 8.195312 25.851562 8.125 25.914062 8.101562 C 25.972656 8.078125 26.042969 8.109375 26.066406 8.171875 L 26.96875 10.589844 C 26.988281 10.652344 26.960938 10.722656 26.898438 10.746094 C 26.886719 10.75 26.871094 10.753906 26.859375 10.753906 Z M 26.859375 10.753906 "
          fill-opacity="1" fill-rule="nonzero"/>
    <path fill="#fbfbf5"
          d="M 27.359375 10.753906 C 27.3125 10.753906 27.269531 10.726562 27.25 10.675781 L 26.703125 9.210938 C 26.679688 9.148438 26.710938 9.078125 26.769531 9.054688 C 26.832031 9.03125 26.898438 9.0625 26.921875 9.125 L 27.46875 10.589844 C 27.492188 10.652344 27.460938 10.722656 27.402344 10.746094 C 27.386719 10.75 27.375 10.753906 27.359375 10.753906 Z M 27.359375 10.753906 "
          fill-opacity="1" fill-rule="nonzero"/>
    <path fill="#fbfbf5"
          d="M 22.972656 10.753906 C 22.925781 10.753906 22.882812 10.722656 22.863281 10.675781 L 22.714844 10.273438 C 22.691406 10.210938 22.722656 10.140625 22.78125 10.117188 C 22.84375 10.09375 22.910156 10.125 22.933594 10.1875 L 23.082031 10.589844 C 23.105469 10.652344 23.074219 10.722656 23.015625 10.746094 C 23.003906 10.75 22.988281 10.753906 22.972656 10.753906 Z M 22.972656 10.753906 "
          fill-opacity="1" fill-rule="nonzero"/>
    <path fill="#fbfbf5"
          d="M 22.386719 10.523438 C 22.339844 10.523438 22.296875 10.496094 22.277344 10.449219 C 22.253906 10.386719 22.285156 10.316406 22.34375 10.292969 L 23.21875 9.945312 C 23.277344 9.921875 23.347656 9.953125 23.371094 10.015625 C 23.394531 10.078125 23.363281 10.148438 23.300781 10.171875 L 22.429688 10.515625 C 22.414062 10.523438 22.402344 10.523438 22.386719 10.523438 Z M 22.386719 10.523438 "
          fill-opacity="1" fill-rule="nonzero"/>
    <path fill="#fbfbf5"
          d="M 21.808594 10.753906 C 21.761719 10.753906 21.71875 10.726562 21.699219 10.675781 C 21.675781 10.613281 21.707031 10.546875 21.765625 10.519531 L 22.019531 10.421875 C 22.078125 10.398438 22.144531 10.429688 22.167969 10.492188 C 22.191406 10.554688 22.164062 10.621094 22.101562 10.648438 L 21.851562 10.746094 C 21.835938 10.75 21.824219 10.753906 21.808594 10.753906 Z M 21.808594 10.753906 "
          fill-opacity="1" fill-rule="nonzero"/>
    <g fill="#ffffff" fill-opacity="1">
        <g transform="translate(12.207013, 25.937509)">
            <g>
                <path d="M 1.828125 0 L 0.984375 0 C 0.867188 0 0.789062 -0.015625 0.75 -0.046875 C 0.71875 -0.078125 0.691406 -0.140625 0.671875 -0.234375 C 0.640625 -0.359375 0.613281 -0.6875 0.59375 -1.21875 C 0.570312 -1.757812 0.5625 -2.363281 0.5625 -3.03125 C 0.5625 -3.519531 0.570312 -3.976562 0.59375 -4.40625 C 0.625 -4.84375 0.65625 -5.160156 0.6875 -5.359375 C 0.6875 -5.367188 0.691406 -5.378906 0.703125 -5.390625 C 0.742188 -5.609375 0.804688 -5.71875 0.890625 -5.71875 L 1.734375 -5.71875 C 1.867188 -5.71875 1.984375 -5.675781 2.078125 -5.59375 C 2.171875 -5.519531 2.285156 -5.378906 2.421875 -5.171875 C 2.585938 -4.898438 2.734375 -4.609375 2.859375 -4.296875 C 2.992188 -3.992188 3.078125 -3.84375 3.109375 -3.84375 C 3.128906 -3.84375 3.210938 -4 3.359375 -4.3125 C 3.515625 -4.625 3.691406 -4.910156 3.890625 -5.171875 C 4.046875 -5.390625 4.171875 -5.535156 4.265625 -5.609375 C 4.367188 -5.679688 4.472656 -5.71875 4.578125 -5.71875 L 5.296875 -5.71875 C 5.429688 -5.71875 5.515625 -5.625 5.546875 -5.4375 C 5.546875 -5.414062 5.550781 -5.394531 5.5625 -5.375 C 5.601562 -5.132812 5.632812 -4.785156 5.65625 -4.328125 C 5.6875 -3.867188 5.703125 -3.347656 5.703125 -2.765625 C 5.703125 -2.273438 5.6875 -1.820312 5.65625 -1.40625 C 5.632812 -0.988281 5.597656 -0.648438 5.546875 -0.390625 C 5.546875 -0.367188 5.539062 -0.34375 5.53125 -0.3125 C 5.5 -0.101562 5.414062 0 5.28125 0 L 4.34375 0 C 4.289062 0 4.253906 0 4.234375 0 C 4.222656 -0.0078125 4.21875 -0.0234375 4.21875 -0.046875 C 4.21875 -0.0546875 4.242188 -0.148438 4.296875 -0.328125 C 4.359375 -0.515625 4.410156 -0.707031 4.453125 -0.90625 C 4.515625 -1.175781 4.554688 -1.46875 4.578125 -1.78125 C 4.609375 -2.09375 4.625 -2.519531 4.625 -3.0625 L 4.625 -3.25 C 4.625 -3.582031 4.609375 -3.820312 4.578125 -3.96875 C 4.546875 -4.125 4.5 -4.203125 4.4375 -4.203125 C 4.351562 -4.203125 4.242188 -4.066406 4.109375 -3.796875 C 3.972656 -3.535156 3.84375 -3.203125 3.71875 -2.796875 C 3.644531 -2.566406 3.578125 -2.273438 3.515625 -1.921875 C 3.421875 -1.484375 3.285156 -1.265625 3.109375 -1.265625 C 2.898438 -1.265625 2.742188 -1.5 2.640625 -1.96875 C 2.566406 -2.28125 2.5 -2.539062 2.4375 -2.75 C 2.28125 -3.21875 2.132812 -3.578125 2 -3.828125 C 1.875 -4.085938 1.765625 -4.21875 1.671875 -4.21875 C 1.609375 -4.21875 1.5625 -4.132812 1.53125 -3.96875 C 1.507812 -3.800781 1.5 -3.507812 1.5 -3.09375 C 1.5 -2.09375 1.628906 -1.160156 1.890625 -0.296875 C 1.929688 -0.179688 1.953125 -0.113281 1.953125 -0.09375 C 1.953125 -0.0625 1.941406 -0.0351562 1.921875 -0.015625 C 1.898438 -0.00390625 1.867188 0 1.828125 0 Z M 1.828125 0 "/>
            </g>
        </g>
        <g transform="translate(18.513176, 25.937509)">
            <g>
                <path d="M 2.625 -4.765625 C 2.3125 -4.765625 2.035156 -4.53125 1.796875 -4.0625 C 1.554688 -3.59375 1.4375 -3.035156 1.4375 -2.390625 C 1.4375 -1.941406 1.523438 -1.625 1.703125 -1.4375 C 1.878906 -1.25 2.1875 -1.15625 2.625 -1.15625 C 3.019531 -1.15625 3.3125 -1.257812 3.5 -1.46875 C 3.6875 -1.675781 3.78125 -2.007812 3.78125 -2.46875 C 3.78125 -3.082031 3.65625 -3.617188 3.40625 -4.078125 C 3.164062 -4.535156 2.90625 -4.765625 2.625 -4.765625 Z M 0.3125 -1.953125 C 0.3125 -2.453125 0.378906 -2.953125 0.515625 -3.453125 C 0.660156 -3.953125 0.859375 -4.40625 1.109375 -4.8125 C 1.316406 -5.132812 1.550781 -5.378906 1.8125 -5.546875 C 2.070312 -5.722656 2.34375 -5.8125 2.625 -5.8125 C 2.894531 -5.8125 3.148438 -5.722656 3.390625 -5.546875 C 3.640625 -5.378906 3.882812 -5.113281 4.125 -4.75 C 4.363281 -4.394531 4.546875 -3.984375 4.671875 -3.515625 C 4.804688 -3.046875 4.875 -2.5625 4.875 -2.0625 C 4.875 -1.289062 4.6875 -0.738281 4.3125 -0.40625 C 3.9375 -0.0703125 3.3125 0.09375 2.4375 0.09375 C 1.6875 0.09375 1.144531 -0.0664062 0.8125 -0.390625 C 0.476562 -0.710938 0.3125 -1.234375 0.3125 -1.953125 Z M 0.3125 -1.953125 "/>
            </g>
        </g>
        <g transform="translate(23.731691, 25.937509)">
            <g>
                <path d="M 0.703125 -2.453125 C 0.734375 -2.453125 0.757812 -2.367188 0.78125 -2.203125 C 0.8125 -2.035156 0.859375 -1.890625 0.921875 -1.765625 C 1.046875 -1.515625 1.210938 -1.328125 1.421875 -1.203125 C 1.628906 -1.078125 1.878906 -1.015625 2.171875 -1.015625 C 2.460938 -1.015625 2.6875 -1.070312 2.84375 -1.1875 C 3.007812 -1.3125 3.09375 -1.484375 3.09375 -1.703125 C 3.09375 -2.023438 2.742188 -2.304688 2.046875 -2.546875 L 1.96875 -2.578125 C 1.40625 -2.773438 1.007812 -3.003906 0.78125 -3.265625 C 0.550781 -3.523438 0.4375 -3.851562 0.4375 -4.25 C 0.4375 -4.707031 0.59375 -5.078125 0.90625 -5.359375 C 1.226562 -5.648438 1.648438 -5.796875 2.171875 -5.796875 C 2.578125 -5.796875 2.957031 -5.710938 3.3125 -5.546875 C 3.675781 -5.390625 3.859375 -5.238281 3.859375 -5.09375 C 3.859375 -5.050781 3.835938 -4.988281 3.796875 -4.90625 C 3.765625 -4.820312 3.71875 -4.722656 3.65625 -4.609375 C 3.59375 -4.492188 3.535156 -4.40625 3.484375 -4.34375 C 3.429688 -4.289062 3.382812 -4.265625 3.34375 -4.265625 C 3.332031 -4.265625 3.191406 -4.363281 2.921875 -4.5625 C 2.648438 -4.757812 2.390625 -4.859375 2.140625 -4.859375 C 1.941406 -4.859375 1.78125 -4.800781 1.65625 -4.6875 C 1.53125 -4.582031 1.46875 -4.445312 1.46875 -4.28125 C 1.46875 -4.113281 1.53125 -3.972656 1.65625 -3.859375 C 1.789062 -3.753906 2.0625 -3.632812 2.46875 -3.5 C 3.101562 -3.289062 3.550781 -3.046875 3.8125 -2.765625 C 4.070312 -2.484375 4.203125 -2.125 4.203125 -1.6875 C 4.203125 -1.144531 4.015625 -0.710938 3.640625 -0.390625 C 3.273438 -0.0664062 2.789062 0.09375 2.1875 0.09375 C 1.625 0.09375 1.164062 -0.0507812 0.8125 -0.34375 C 0.46875 -0.632812 0.296875 -1.007812 0.296875 -1.46875 C 0.296875 -1.707031 0.34375 -1.929688 0.4375 -2.140625 C 0.539062 -2.347656 0.628906 -2.453125 0.703125 -2.453125 Z M 0.703125 -2.453125 "/>
            </g>
        </g>
        <g transform="translate(28.269052, 25.937509)">
            <g>
                <path d="M 2.84375 0 L 1.921875 0 C 1.847656 0 1.789062 -0.015625 1.75 -0.046875 C 1.71875 -0.078125 1.691406 -0.144531 1.671875 -0.25 C 1.640625 -0.414062 1.609375 -0.644531 1.578125 -0.9375 C 1.554688 -1.238281 1.546875 -1.550781 1.546875 -1.875 C 1.546875 -2.582031 1.613281 -3.34375 1.75 -4.15625 C 1.789062 -4.375 1.8125 -4.507812 1.8125 -4.5625 C 1.8125 -4.65625 1.796875 -4.71875 1.765625 -4.75 C 1.742188 -4.78125 1.703125 -4.796875 1.640625 -4.796875 C 1.554688 -4.796875 1.445312 -4.757812 1.3125 -4.6875 C 1.175781 -4.613281 1.015625 -4.515625 0.828125 -4.390625 C 0.753906 -4.335938 0.648438 -4.253906 0.515625 -4.140625 C 0.390625 -4.035156 0.300781 -3.984375 0.25 -3.984375 C 0.21875 -3.984375 0.191406 -4 0.171875 -4.03125 C 0.160156 -4.0625 0.15625 -4.109375 0.15625 -4.171875 C 0.15625 -4.210938 0.171875 -4.304688 0.203125 -4.453125 C 0.234375 -4.609375 0.253906 -4.738281 0.265625 -4.84375 C 0.273438 -4.875 0.285156 -4.921875 0.296875 -4.984375 C 0.335938 -5.242188 0.398438 -5.398438 0.484375 -5.453125 C 0.648438 -5.546875 0.90625 -5.628906 1.25 -5.703125 C 1.59375 -5.773438 1.945312 -5.8125 2.3125 -5.8125 C 2.894531 -5.8125 3.382812 -5.753906 3.78125 -5.640625 C 4.175781 -5.535156 4.375 -5.410156 4.375 -5.265625 C 4.375 -5.066406 4.328125 -4.847656 4.234375 -4.609375 C 4.140625 -4.367188 4.0625 -4.25 4 -4.25 C 3.976562 -4.25 3.929688 -4.285156 3.859375 -4.359375 C 3.785156 -4.441406 3.710938 -4.507812 3.640625 -4.5625 C 3.535156 -4.644531 3.441406 -4.707031 3.359375 -4.75 C 3.273438 -4.789062 3.195312 -4.8125 3.125 -4.8125 C 2.957031 -4.8125 2.832031 -4.664062 2.75 -4.375 C 2.675781 -4.082031 2.640625 -3.601562 2.640625 -2.9375 C 2.640625 -1.976562 2.769531 -1.097656 3.03125 -0.296875 C 3.0625 -0.191406 3.078125 -0.128906 3.078125 -0.109375 C 3.078125 -0.078125 3.050781 -0.0507812 3 -0.03125 C 2.957031 -0.0078125 2.90625 0 2.84375 0 Z M 2.84375 0 "/>
            </g>
        </g>
    </g>
    <g fill="#ffffff" fill-opacity="1">
        <g transform="translate(13.212874, 33.437522)">
            <g>
                <path d="M 0.703125 -2.453125 C 0.734375 -2.453125 0.757812 -2.367188 0.78125 -2.203125 C 0.8125 -2.035156 0.859375 -1.890625 0.921875 -1.765625 C 1.046875 -1.515625 1.210938 -1.328125 1.421875 -1.203125 C 1.628906 -1.078125 1.878906 -1.015625 2.171875 -1.015625 C 2.460938 -1.015625 2.6875 -1.070312 2.84375 -1.1875 C 3.007812 -1.3125 3.09375 -1.484375 3.09375 -1.703125 C 3.09375 -2.023438 2.742188 -2.304688 2.046875 -2.546875 L 1.96875 -2.578125 C 1.40625 -2.773438 1.007812 -3.003906 0.78125 -3.265625 C 0.550781 -3.523438 0.4375 -3.851562 0.4375 -4.25 C 0.4375 -4.707031 0.59375 -5.078125 0.90625 -5.359375 C 1.226562 -5.648438 1.648438 -5.796875 2.171875 -5.796875 C 2.578125 -5.796875 2.957031 -5.710938 3.3125 -5.546875 C 3.675781 -5.390625 3.859375 -5.238281 3.859375 -5.09375 C 3.859375 -5.050781 3.835938 -4.988281 3.796875 -4.90625 C 3.765625 -4.820312 3.71875 -4.722656 3.65625 -4.609375 C 3.59375 -4.492188 3.535156 -4.40625 3.484375 -4.34375 C 3.429688 -4.289062 3.382812 -4.265625 3.34375 -4.265625 C 3.332031 -4.265625 3.191406 -4.363281 2.921875 -4.5625 C 2.648438 -4.757812 2.390625 -4.859375 2.140625 -4.859375 C 1.941406 -4.859375 1.78125 -4.800781 1.65625 -4.6875 C 1.53125 -4.582031 1.46875 -4.445312 1.46875 -4.28125 C 1.46875 -4.113281 1.53125 -3.972656 1.65625 -3.859375 C 1.789062 -3.753906 2.0625 -3.632812 2.46875 -3.5 C 3.101562 -3.289062 3.550781 -3.046875 3.8125 -2.765625 C 4.070312 -2.484375 4.203125 -2.125 4.203125 -1.6875 C 4.203125 -1.144531 4.015625 -0.710938 3.640625 -0.390625 C 3.273438 -0.0664062 2.789062 0.09375 2.1875 0.09375 C 1.625 0.09375 1.164062 -0.0507812 0.8125 -0.34375 C 0.46875 -0.632812 0.296875 -1.007812 0.296875 -1.46875 C 0.296875 -1.707031 0.34375 -1.929688 0.4375 -2.140625 C 0.539062 -2.347656 0.628906 -2.453125 0.703125 -2.453125 Z M 0.703125 -2.453125 "/>
            </g>
        </g>
        <g transform="translate(17.750236, 33.437522)">
            <g>
                <path d="M 2.625 -4.765625 C 2.3125 -4.765625 2.035156 -4.53125 1.796875 -4.0625 C 1.554688 -3.59375 1.4375 -3.035156 1.4375 -2.390625 C 1.4375 -1.941406 1.523438 -1.625 1.703125 -1.4375 C 1.878906 -1.25 2.1875 -1.15625 2.625 -1.15625 C 3.019531 -1.15625 3.3125 -1.257812 3.5 -1.46875 C 3.6875 -1.675781 3.78125 -2.007812 3.78125 -2.46875 C 3.78125 -3.082031 3.65625 -3.617188 3.40625 -4.078125 C 3.164062 -4.535156 2.90625 -4.765625 2.625 -4.765625 Z M 0.3125 -1.953125 C 0.3125 -2.453125 0.378906 -2.953125 0.515625 -3.453125 C 0.660156 -3.953125 0.859375 -4.40625 1.109375 -4.8125 C 1.316406 -5.132812 1.550781 -5.378906 1.8125 -5.546875 C 2.070312 -5.722656 2.34375 -5.8125 2.625 -5.8125 C 2.894531 -5.8125 3.148438 -5.722656 3.390625 -5.546875 C 3.640625 -5.378906 3.882812 -5.113281 4.125 -4.75 C 4.363281 -4.394531 4.546875 -3.984375 4.671875 -3.515625 C 4.804688 -3.046875 4.875 -2.5625 4.875 -2.0625 C 4.875 -1.289062 4.6875 -0.738281 4.3125 -0.40625 C 3.9375 -0.0703125 3.3125 0.09375 2.4375 0.09375 C 1.6875 0.09375 1.144531 -0.0664062 0.8125 -0.390625 C 0.476562 -0.710938 0.3125 -1.234375 0.3125 -1.953125 Z M 0.3125 -1.953125 "/>
            </g>
        </g>
        <g transform="translate(22.96875, 33.437522)">
            <g>
                <path d="M 3.546875 0 L 0.859375 0 C 0.773438 0 0.71875 -0.00390625 0.6875 -0.015625 C 0.65625 -0.0351562 0.632812 -0.0664062 0.625 -0.109375 C 0.59375 -0.179688 0.566406 -0.335938 0.546875 -0.578125 C 0.523438 -0.828125 0.515625 -1.101562 0.515625 -1.40625 C 0.515625 -2.03125 0.546875 -2.671875 0.609375 -3.328125 C 0.679688 -3.992188 0.78125 -4.609375 0.90625 -5.171875 C 0.90625 -5.191406 0.910156 -5.226562 0.921875 -5.28125 C 0.984375 -5.570312 1.09375 -5.71875 1.25 -5.71875 L 2.203125 -5.71875 C 2.242188 -5.71875 2.269531 -5.710938 2.28125 -5.703125 C 2.300781 -5.691406 2.3125 -5.671875 2.3125 -5.640625 C 2.3125 -5.617188 2.265625 -5.492188 2.171875 -5.265625 C 2.085938 -5.046875 2.007812 -4.832031 1.9375 -4.625 C 1.8125 -4.226562 1.710938 -3.785156 1.640625 -3.296875 C 1.566406 -2.816406 1.53125 -2.382812 1.53125 -2 C 1.53125 -1.625 1.59375 -1.347656 1.71875 -1.171875 C 1.851562 -0.992188 2.054688 -0.90625 2.328125 -0.90625 C 2.453125 -0.90625 2.570312 -0.925781 2.6875 -0.96875 C 2.8125 -1.007812 2.9375 -1.078125 3.0625 -1.171875 C 3.132812 -1.222656 3.207031 -1.285156 3.28125 -1.359375 C 3.351562 -1.441406 3.398438 -1.484375 3.421875 -1.484375 C 3.441406 -1.484375 3.460938 -1.46875 3.484375 -1.4375 C 3.503906 -1.414062 3.519531 -1.382812 3.53125 -1.34375 L 3.828125 -0.265625 C 3.828125 -0.253906 3.828125 -0.234375 3.828125 -0.203125 C 3.835938 -0.179688 3.84375 -0.160156 3.84375 -0.140625 C 3.84375 -0.0859375 3.820312 -0.0507812 3.78125 -0.03125 C 3.75 -0.0078125 3.671875 0 3.546875 0 Z M 3.546875 0 "/>
            </g>
        </g>
        <g transform="translate(26.960456, 33.437522)">
            <g>
                <path d="M 2.578125 0 L 0.921875 0 C 0.753906 0 0.632812 -0.234375 0.5625 -0.703125 C 0.488281 -1.171875 0.453125 -1.90625 0.453125 -2.90625 C 0.453125 -3.425781 0.46875 -3.875 0.5 -4.25 C 0.53125 -4.632812 0.582031 -4.988281 0.65625 -5.3125 C 0.6875 -5.476562 0.71875 -5.585938 0.75 -5.640625 C 0.78125 -5.691406 0.835938 -5.71875 0.921875 -5.71875 L 2.046875 -5.71875 C 2.359375 -5.71875 2.632812 -5.648438 2.875 -5.515625 C 3.113281 -5.378906 3.347656 -5.160156 3.578125 -4.859375 C 3.835938 -4.503906 4.039062 -4.082031 4.1875 -3.59375 C 4.34375 -3.113281 4.421875 -2.632812 4.421875 -2.15625 C 4.421875 -1.457031 4.257812 -0.921875 3.9375 -0.546875 C 3.625 -0.179688 3.171875 0 2.578125 0 Z M 1.515625 -3.109375 C 1.515625 -2.242188 1.578125 -1.648438 1.703125 -1.328125 C 1.828125 -1.003906 2.046875 -0.84375 2.359375 -0.84375 C 2.648438 -0.84375 2.890625 -0.984375 3.078125 -1.265625 C 3.265625 -1.554688 3.359375 -1.9375 3.359375 -2.40625 C 3.359375 -2.695312 3.316406 -2.984375 3.234375 -3.265625 C 3.148438 -3.554688 3.03125 -3.835938 2.875 -4.109375 C 2.726562 -4.335938 2.570312 -4.519531 2.40625 -4.65625 C 2.25 -4.789062 2.109375 -4.859375 1.984375 -4.859375 C 1.804688 -4.859375 1.679688 -4.734375 1.609375 -4.484375 C 1.546875 -4.234375 1.515625 -3.773438 1.515625 -3.109375 Z M 1.515625 -3.109375 "/>
            </g>
        </g>
    </g>
</svg>